<mxfile host="app.diagrams.net" modified="2024-04-14T17:05:13.182Z" agent="Mozilla/5.0 (Macintosh; Intel Mac OS X 10_15_7) AppleWebKit/537.36 (KHTML, like Gecko) Chrome/123.0.0.0 Safari/537.36" etag="AbkPSxmzlNBvmedPnw1n" version="24.2.2" type="github" pages="11">
  <diagram name="1" id="YE1TAmApZvhlKCIu9yRy">
    <mxGraphModel dx="840" dy="511" grid="1" gridSize="10" guides="1" tooltips="1" connect="1" arrows="1" fold="1" page="1" pageScale="1" pageWidth="850" pageHeight="1100" math="0" shadow="0">
      <root>
        <mxCell id="0" />
        <mxCell id="1" parent="0" />
        <mxCell id="MP4qknM3CVN4eRaGPUhc-1" value="" style="rounded=0;whiteSpace=wrap;html=1;" parent="1" vertex="1">
          <mxGeometry x="320" y="40" width="205" height="80" as="geometry" />
        </mxCell>
        <mxCell id="MP4qknM3CVN4eRaGPUhc-2" value="Início" style="rounded=0;whiteSpace=wrap;html=1;" parent="1" vertex="1">
          <mxGeometry x="320" y="80" width="100" height="40" as="geometry" />
        </mxCell>
        <mxCell id="MP4qknM3CVN4eRaGPUhc-3" value="Fim" style="rounded=0;whiteSpace=wrap;html=1;" parent="1" vertex="1">
          <mxGeometry x="420" y="80" width="105" height="40" as="geometry" />
        </mxCell>
        <mxCell id="MP4qknM3CVN4eRaGPUhc-4" value="Lista" style="text;html=1;align=center;verticalAlign=middle;whiteSpace=wrap;rounded=0;" parent="1" vertex="1">
          <mxGeometry x="390" y="40" width="60" height="30" as="geometry" />
        </mxCell>
        <mxCell id="MP4qknM3CVN4eRaGPUhc-15" value="" style="endArrow=classic;html=1;rounded=0;exitX=0.5;exitY=1;exitDx=0;exitDy=0;entryX=0.5;entryY=0;entryDx=0;entryDy=0;" parent="1" source="MP4qknM3CVN4eRaGPUhc-2" edge="1" target="N3kNM2EfdltcJ7oVFj_H-1">
          <mxGeometry width="50" height="50" relative="1" as="geometry">
            <mxPoint x="400" y="260" as="sourcePoint" />
            <mxPoint x="370" y="160" as="targetPoint" />
          </mxGeometry>
        </mxCell>
        <mxCell id="MP4qknM3CVN4eRaGPUhc-17" value="" style="endArrow=classic;html=1;rounded=0;exitX=0.5;exitY=1;exitDx=0;exitDy=0;entryX=0.5;entryY=0;entryDx=0;entryDy=0;" parent="1" edge="1" target="N3kNM2EfdltcJ7oVFj_H-3">
          <mxGeometry width="50" height="50" relative="1" as="geometry">
            <mxPoint x="472" y="120" as="sourcePoint" />
            <mxPoint x="472" y="160" as="targetPoint" />
          </mxGeometry>
        </mxCell>
        <mxCell id="N3kNM2EfdltcJ7oVFj_H-4" style="edgeStyle=orthogonalEdgeStyle;rounded=0;orthogonalLoop=1;jettySize=auto;html=1;entryX=0;entryY=0.5;entryDx=0;entryDy=0;" edge="1" parent="1" source="N3kNM2EfdltcJ7oVFj_H-1" target="N3kNM2EfdltcJ7oVFj_H-2">
          <mxGeometry relative="1" as="geometry" />
        </mxCell>
        <mxCell id="N3kNM2EfdltcJ7oVFj_H-1" value="12" style="rounded=0;whiteSpace=wrap;html=1;" vertex="1" parent="1">
          <mxGeometry x="140" y="240" width="100" height="40" as="geometry" />
        </mxCell>
        <mxCell id="N3kNM2EfdltcJ7oVFj_H-5" style="edgeStyle=orthogonalEdgeStyle;rounded=0;orthogonalLoop=1;jettySize=auto;html=1;" edge="1" parent="1" source="N3kNM2EfdltcJ7oVFj_H-2" target="N3kNM2EfdltcJ7oVFj_H-3">
          <mxGeometry relative="1" as="geometry" />
        </mxCell>
        <mxCell id="N3kNM2EfdltcJ7oVFj_H-2" value="55" style="rounded=0;whiteSpace=wrap;html=1;" vertex="1" parent="1">
          <mxGeometry x="375" y="240" width="100" height="40" as="geometry" />
        </mxCell>
        <mxCell id="N3kNM2EfdltcJ7oVFj_H-3" value="100" style="rounded=0;whiteSpace=wrap;html=1;" vertex="1" parent="1">
          <mxGeometry x="600" y="240" width="100" height="40" as="geometry" />
        </mxCell>
        <mxCell id="N3kNM2EfdltcJ7oVFj_H-6" value="" style="group" vertex="1" connectable="0" parent="1">
          <mxGeometry x="620" y="310" width="60" height="20" as="geometry" />
        </mxCell>
        <mxCell id="N3kNM2EfdltcJ7oVFj_H-7" value="" style="endArrow=none;html=1;rounded=0;" edge="1" parent="N3kNM2EfdltcJ7oVFj_H-6">
          <mxGeometry width="50" height="50" relative="1" as="geometry">
            <mxPoint as="sourcePoint" />
            <mxPoint x="60" as="targetPoint" />
          </mxGeometry>
        </mxCell>
        <mxCell id="N3kNM2EfdltcJ7oVFj_H-8" value="" style="endArrow=none;html=1;rounded=0;" edge="1" parent="N3kNM2EfdltcJ7oVFj_H-6">
          <mxGeometry width="50" height="50" relative="1" as="geometry">
            <mxPoint x="10" y="10" as="sourcePoint" />
            <mxPoint x="50" y="10" as="targetPoint" />
          </mxGeometry>
        </mxCell>
        <mxCell id="N3kNM2EfdltcJ7oVFj_H-9" value="" style="endArrow=none;html=1;rounded=0;" edge="1" parent="N3kNM2EfdltcJ7oVFj_H-6">
          <mxGeometry width="50" height="50" relative="1" as="geometry">
            <mxPoint x="20" y="20" as="sourcePoint" />
            <mxPoint x="40" y="20" as="targetPoint" />
          </mxGeometry>
        </mxCell>
        <mxCell id="N3kNM2EfdltcJ7oVFj_H-10" value="" style="endArrow=classic;html=1;rounded=0;" edge="1" parent="1">
          <mxGeometry width="50" height="50" relative="1" as="geometry">
            <mxPoint x="650" y="280" as="sourcePoint" />
            <mxPoint x="650" y="310" as="targetPoint" />
          </mxGeometry>
        </mxCell>
        <mxCell id="N3kNM2EfdltcJ7oVFj_H-11" value="34" style="rounded=0;whiteSpace=wrap;html=1;" vertex="1" parent="1">
          <mxGeometry x="50" y="80" width="100" height="40" as="geometry" />
        </mxCell>
        <mxCell id="N3kNM2EfdltcJ7oVFj_H-12" value="Vamos inserir no começo" style="text;html=1;align=center;verticalAlign=middle;resizable=0;points=[];autosize=1;strokeColor=none;fillColor=none;" vertex="1" parent="1">
          <mxGeometry x="20" y="28" width="160" height="30" as="geometry" />
        </mxCell>
        <mxCell id="N3kNM2EfdltcJ7oVFj_H-13" value="" style="endArrow=classic;html=1;rounded=0;" edge="1" parent="1">
          <mxGeometry width="50" height="50" relative="1" as="geometry">
            <mxPoint x="100" y="120" as="sourcePoint" />
            <mxPoint x="100" y="150" as="targetPoint" />
          </mxGeometry>
        </mxCell>
        <mxCell id="N3kNM2EfdltcJ7oVFj_H-14" value="" style="group" vertex="1" connectable="0" parent="1">
          <mxGeometry x="70" y="150" width="60" height="20" as="geometry" />
        </mxCell>
        <mxCell id="N3kNM2EfdltcJ7oVFj_H-15" value="" style="endArrow=none;html=1;rounded=0;" edge="1" parent="N3kNM2EfdltcJ7oVFj_H-14">
          <mxGeometry width="50" height="50" relative="1" as="geometry">
            <mxPoint as="sourcePoint" />
            <mxPoint x="60" as="targetPoint" />
          </mxGeometry>
        </mxCell>
        <mxCell id="N3kNM2EfdltcJ7oVFj_H-16" value="" style="endArrow=none;html=1;rounded=0;" edge="1" parent="N3kNM2EfdltcJ7oVFj_H-14">
          <mxGeometry width="50" height="50" relative="1" as="geometry">
            <mxPoint x="10" y="10" as="sourcePoint" />
            <mxPoint x="50" y="10" as="targetPoint" />
          </mxGeometry>
        </mxCell>
        <mxCell id="N3kNM2EfdltcJ7oVFj_H-17" value="" style="endArrow=none;html=1;rounded=0;" edge="1" parent="N3kNM2EfdltcJ7oVFj_H-14">
          <mxGeometry width="50" height="50" relative="1" as="geometry">
            <mxPoint x="20" y="20" as="sourcePoint" />
            <mxPoint x="40" y="20" as="targetPoint" />
          </mxGeometry>
        </mxCell>
      </root>
    </mxGraphModel>
  </diagram>
  <diagram name="2" id="uDopMJoiU68wjy0OXyee">
    <mxGraphModel dx="1134" dy="690" grid="1" gridSize="10" guides="1" tooltips="1" connect="1" arrows="1" fold="1" page="1" pageScale="1" pageWidth="850" pageHeight="1100" math="0" shadow="0">
      <root>
        <mxCell id="9-qjq9bKN08A09mHVx9S-0" />
        <mxCell id="9-qjq9bKN08A09mHVx9S-1" parent="9-qjq9bKN08A09mHVx9S-0" />
        <mxCell id="9-qjq9bKN08A09mHVx9S-2" value="" style="rounded=0;whiteSpace=wrap;html=1;" vertex="1" parent="9-qjq9bKN08A09mHVx9S-1">
          <mxGeometry x="320" y="40" width="205" height="80" as="geometry" />
        </mxCell>
        <mxCell id="9-qjq9bKN08A09mHVx9S-3" value="Início" style="rounded=0;whiteSpace=wrap;html=1;" vertex="1" parent="9-qjq9bKN08A09mHVx9S-1">
          <mxGeometry x="320" y="80" width="100" height="40" as="geometry" />
        </mxCell>
        <mxCell id="9-qjq9bKN08A09mHVx9S-4" value="Fim" style="rounded=0;whiteSpace=wrap;html=1;" vertex="1" parent="9-qjq9bKN08A09mHVx9S-1">
          <mxGeometry x="420" y="80" width="105" height="40" as="geometry" />
        </mxCell>
        <mxCell id="9-qjq9bKN08A09mHVx9S-6" value="Lista" style="text;html=1;align=center;verticalAlign=middle;whiteSpace=wrap;rounded=0;" vertex="1" parent="9-qjq9bKN08A09mHVx9S-1">
          <mxGeometry x="390" y="40" width="60" height="30" as="geometry" />
        </mxCell>
        <mxCell id="9-qjq9bKN08A09mHVx9S-7" value="" style="endArrow=classic;html=1;rounded=0;exitX=0.5;exitY=1;exitDx=0;exitDy=0;entryX=0.5;entryY=0;entryDx=0;entryDy=0;" edge="1" parent="9-qjq9bKN08A09mHVx9S-1" source="9-qjq9bKN08A09mHVx9S-3" target="9-qjq9bKN08A09mHVx9S-10">
          <mxGeometry width="50" height="50" relative="1" as="geometry">
            <mxPoint x="400" y="260" as="sourcePoint" />
            <mxPoint x="370" y="160" as="targetPoint" />
          </mxGeometry>
        </mxCell>
        <mxCell id="9-qjq9bKN08A09mHVx9S-8" value="" style="endArrow=classic;html=1;rounded=0;exitX=0.5;exitY=1;exitDx=0;exitDy=0;entryX=0.5;entryY=0;entryDx=0;entryDy=0;" edge="1" parent="9-qjq9bKN08A09mHVx9S-1" target="9-qjq9bKN08A09mHVx9S-13">
          <mxGeometry width="50" height="50" relative="1" as="geometry">
            <mxPoint x="472" y="120" as="sourcePoint" />
            <mxPoint x="472" y="160" as="targetPoint" />
          </mxGeometry>
        </mxCell>
        <mxCell id="9-qjq9bKN08A09mHVx9S-9" style="edgeStyle=orthogonalEdgeStyle;rounded=0;orthogonalLoop=1;jettySize=auto;html=1;entryX=0;entryY=0.5;entryDx=0;entryDy=0;" edge="1" parent="9-qjq9bKN08A09mHVx9S-1" source="9-qjq9bKN08A09mHVx9S-10" target="9-qjq9bKN08A09mHVx9S-12">
          <mxGeometry relative="1" as="geometry" />
        </mxCell>
        <mxCell id="9-qjq9bKN08A09mHVx9S-10" value="12" style="rounded=0;whiteSpace=wrap;html=1;" vertex="1" parent="9-qjq9bKN08A09mHVx9S-1">
          <mxGeometry x="140" y="240" width="100" height="40" as="geometry" />
        </mxCell>
        <mxCell id="9-qjq9bKN08A09mHVx9S-11" style="edgeStyle=orthogonalEdgeStyle;rounded=0;orthogonalLoop=1;jettySize=auto;html=1;" edge="1" parent="9-qjq9bKN08A09mHVx9S-1" source="9-qjq9bKN08A09mHVx9S-12" target="9-qjq9bKN08A09mHVx9S-13">
          <mxGeometry relative="1" as="geometry" />
        </mxCell>
        <mxCell id="9-qjq9bKN08A09mHVx9S-12" value="55" style="rounded=0;whiteSpace=wrap;html=1;" vertex="1" parent="9-qjq9bKN08A09mHVx9S-1">
          <mxGeometry x="375" y="240" width="100" height="40" as="geometry" />
        </mxCell>
        <mxCell id="9-qjq9bKN08A09mHVx9S-13" value="100" style="rounded=0;whiteSpace=wrap;html=1;" vertex="1" parent="9-qjq9bKN08A09mHVx9S-1">
          <mxGeometry x="600" y="240" width="100" height="40" as="geometry" />
        </mxCell>
        <mxCell id="9-qjq9bKN08A09mHVx9S-14" value="" style="group" vertex="1" connectable="0" parent="9-qjq9bKN08A09mHVx9S-1">
          <mxGeometry x="620" y="310" width="60" height="20" as="geometry" />
        </mxCell>
        <mxCell id="9-qjq9bKN08A09mHVx9S-15" value="" style="endArrow=none;html=1;rounded=0;" edge="1" parent="9-qjq9bKN08A09mHVx9S-14">
          <mxGeometry width="50" height="50" relative="1" as="geometry">
            <mxPoint as="sourcePoint" />
            <mxPoint x="60" as="targetPoint" />
          </mxGeometry>
        </mxCell>
        <mxCell id="9-qjq9bKN08A09mHVx9S-16" value="" style="endArrow=none;html=1;rounded=0;" edge="1" parent="9-qjq9bKN08A09mHVx9S-14">
          <mxGeometry width="50" height="50" relative="1" as="geometry">
            <mxPoint x="10" y="10" as="sourcePoint" />
            <mxPoint x="50" y="10" as="targetPoint" />
          </mxGeometry>
        </mxCell>
        <mxCell id="9-qjq9bKN08A09mHVx9S-17" value="" style="endArrow=none;html=1;rounded=0;" edge="1" parent="9-qjq9bKN08A09mHVx9S-14">
          <mxGeometry width="50" height="50" relative="1" as="geometry">
            <mxPoint x="20" y="20" as="sourcePoint" />
            <mxPoint x="40" y="20" as="targetPoint" />
          </mxGeometry>
        </mxCell>
        <mxCell id="9-qjq9bKN08A09mHVx9S-18" value="" style="endArrow=classic;html=1;rounded=0;" edge="1" parent="9-qjq9bKN08A09mHVx9S-1">
          <mxGeometry width="50" height="50" relative="1" as="geometry">
            <mxPoint x="650" y="280" as="sourcePoint" />
            <mxPoint x="650" y="310" as="targetPoint" />
          </mxGeometry>
        </mxCell>
        <mxCell id="9-qjq9bKN08A09mHVx9S-19" value="34" style="rounded=0;whiteSpace=wrap;html=1;" vertex="1" parent="9-qjq9bKN08A09mHVx9S-1">
          <mxGeometry x="50" y="80" width="100" height="40" as="geometry" />
        </mxCell>
        <mxCell id="haPTUt2jr7QH_UKoqgrl-0" value="" style="group" vertex="1" connectable="0" parent="9-qjq9bKN08A09mHVx9S-1">
          <mxGeometry x="70" y="150" width="60" height="20" as="geometry" />
        </mxCell>
        <mxCell id="haPTUt2jr7QH_UKoqgrl-1" value="" style="endArrow=none;html=1;rounded=0;" edge="1" parent="haPTUt2jr7QH_UKoqgrl-0">
          <mxGeometry width="50" height="50" relative="1" as="geometry">
            <mxPoint as="sourcePoint" />
            <mxPoint x="60" as="targetPoint" />
          </mxGeometry>
        </mxCell>
        <mxCell id="haPTUt2jr7QH_UKoqgrl-2" value="" style="endArrow=none;html=1;rounded=0;" edge="1" parent="haPTUt2jr7QH_UKoqgrl-0">
          <mxGeometry width="50" height="50" relative="1" as="geometry">
            <mxPoint x="10" y="10" as="sourcePoint" />
            <mxPoint x="50" y="10" as="targetPoint" />
          </mxGeometry>
        </mxCell>
        <mxCell id="haPTUt2jr7QH_UKoqgrl-3" value="" style="endArrow=none;html=1;rounded=0;" edge="1" parent="haPTUt2jr7QH_UKoqgrl-0">
          <mxGeometry width="50" height="50" relative="1" as="geometry">
            <mxPoint x="20" y="20" as="sourcePoint" />
            <mxPoint x="40" y="20" as="targetPoint" />
          </mxGeometry>
        </mxCell>
        <mxCell id="haPTUt2jr7QH_UKoqgrl-4" value="" style="endArrow=classic;html=1;rounded=0;" edge="1" parent="9-qjq9bKN08A09mHVx9S-1">
          <mxGeometry width="50" height="50" relative="1" as="geometry">
            <mxPoint x="100" y="120" as="sourcePoint" />
            <mxPoint x="100" y="150" as="targetPoint" />
          </mxGeometry>
        </mxCell>
      </root>
    </mxGraphModel>
  </diagram>
  <diagram name="3" id="PrUOFmGtZVp85I4RhAww">
    <mxGraphModel dx="1134" dy="690" grid="1" gridSize="10" guides="1" tooltips="1" connect="1" arrows="1" fold="1" page="1" pageScale="1" pageWidth="850" pageHeight="1100" math="0" shadow="0">
      <root>
        <mxCell id="v8-7jSsjd6N45ZcnOBG0-0" />
        <mxCell id="v8-7jSsjd6N45ZcnOBG0-1" parent="v8-7jSsjd6N45ZcnOBG0-0" />
        <mxCell id="v8-7jSsjd6N45ZcnOBG0-2" value="" style="rounded=0;whiteSpace=wrap;html=1;" vertex="1" parent="v8-7jSsjd6N45ZcnOBG0-1">
          <mxGeometry x="320" y="40" width="205" height="80" as="geometry" />
        </mxCell>
        <mxCell id="v8-7jSsjd6N45ZcnOBG0-3" value="Início" style="rounded=0;whiteSpace=wrap;html=1;" vertex="1" parent="v8-7jSsjd6N45ZcnOBG0-1">
          <mxGeometry x="320" y="80" width="100" height="40" as="geometry" />
        </mxCell>
        <mxCell id="v8-7jSsjd6N45ZcnOBG0-4" value="Fim" style="rounded=0;whiteSpace=wrap;html=1;" vertex="1" parent="v8-7jSsjd6N45ZcnOBG0-1">
          <mxGeometry x="420" y="80" width="105" height="40" as="geometry" />
        </mxCell>
        <mxCell id="v8-7jSsjd6N45ZcnOBG0-5" value="Lista" style="text;html=1;align=center;verticalAlign=middle;whiteSpace=wrap;rounded=0;" vertex="1" parent="v8-7jSsjd6N45ZcnOBG0-1">
          <mxGeometry x="390" y="40" width="60" height="30" as="geometry" />
        </mxCell>
        <mxCell id="v8-7jSsjd6N45ZcnOBG0-6" value="" style="endArrow=classic;html=1;rounded=0;exitX=0.5;exitY=1;exitDx=0;exitDy=0;entryX=0.5;entryY=0;entryDx=0;entryDy=0;" edge="1" parent="v8-7jSsjd6N45ZcnOBG0-1" source="v8-7jSsjd6N45ZcnOBG0-3" target="v8-7jSsjd6N45ZcnOBG0-9">
          <mxGeometry width="50" height="50" relative="1" as="geometry">
            <mxPoint x="400" y="260" as="sourcePoint" />
            <mxPoint x="370" y="160" as="targetPoint" />
          </mxGeometry>
        </mxCell>
        <mxCell id="v8-7jSsjd6N45ZcnOBG0-7" value="" style="endArrow=classic;html=1;rounded=0;exitX=0.5;exitY=1;exitDx=0;exitDy=0;entryX=0.5;entryY=0;entryDx=0;entryDy=0;" edge="1" parent="v8-7jSsjd6N45ZcnOBG0-1" target="v8-7jSsjd6N45ZcnOBG0-12">
          <mxGeometry width="50" height="50" relative="1" as="geometry">
            <mxPoint x="472" y="120" as="sourcePoint" />
            <mxPoint x="472" y="160" as="targetPoint" />
          </mxGeometry>
        </mxCell>
        <mxCell id="v8-7jSsjd6N45ZcnOBG0-8" style="edgeStyle=orthogonalEdgeStyle;rounded=0;orthogonalLoop=1;jettySize=auto;html=1;entryX=0;entryY=0.5;entryDx=0;entryDy=0;" edge="1" parent="v8-7jSsjd6N45ZcnOBG0-1" source="v8-7jSsjd6N45ZcnOBG0-9" target="v8-7jSsjd6N45ZcnOBG0-11">
          <mxGeometry relative="1" as="geometry" />
        </mxCell>
        <mxCell id="v8-7jSsjd6N45ZcnOBG0-9" value="12" style="rounded=0;whiteSpace=wrap;html=1;" vertex="1" parent="v8-7jSsjd6N45ZcnOBG0-1">
          <mxGeometry x="140" y="240" width="100" height="40" as="geometry" />
        </mxCell>
        <mxCell id="v8-7jSsjd6N45ZcnOBG0-10" style="edgeStyle=orthogonalEdgeStyle;rounded=0;orthogonalLoop=1;jettySize=auto;html=1;" edge="1" parent="v8-7jSsjd6N45ZcnOBG0-1" source="v8-7jSsjd6N45ZcnOBG0-11" target="v8-7jSsjd6N45ZcnOBG0-12">
          <mxGeometry relative="1" as="geometry" />
        </mxCell>
        <mxCell id="v8-7jSsjd6N45ZcnOBG0-11" value="55" style="rounded=0;whiteSpace=wrap;html=1;" vertex="1" parent="v8-7jSsjd6N45ZcnOBG0-1">
          <mxGeometry x="375" y="240" width="100" height="40" as="geometry" />
        </mxCell>
        <mxCell id="v8-7jSsjd6N45ZcnOBG0-12" value="100" style="rounded=0;whiteSpace=wrap;html=1;" vertex="1" parent="v8-7jSsjd6N45ZcnOBG0-1">
          <mxGeometry x="600" y="240" width="100" height="40" as="geometry" />
        </mxCell>
        <mxCell id="v8-7jSsjd6N45ZcnOBG0-13" value="" style="group" vertex="1" connectable="0" parent="v8-7jSsjd6N45ZcnOBG0-1">
          <mxGeometry x="620" y="310" width="60" height="20" as="geometry" />
        </mxCell>
        <mxCell id="v8-7jSsjd6N45ZcnOBG0-14" value="" style="endArrow=none;html=1;rounded=0;" edge="1" parent="v8-7jSsjd6N45ZcnOBG0-13">
          <mxGeometry width="50" height="50" relative="1" as="geometry">
            <mxPoint as="sourcePoint" />
            <mxPoint x="60" as="targetPoint" />
          </mxGeometry>
        </mxCell>
        <mxCell id="v8-7jSsjd6N45ZcnOBG0-15" value="" style="endArrow=none;html=1;rounded=0;" edge="1" parent="v8-7jSsjd6N45ZcnOBG0-13">
          <mxGeometry width="50" height="50" relative="1" as="geometry">
            <mxPoint x="10" y="10" as="sourcePoint" />
            <mxPoint x="50" y="10" as="targetPoint" />
          </mxGeometry>
        </mxCell>
        <mxCell id="v8-7jSsjd6N45ZcnOBG0-16" value="" style="endArrow=none;html=1;rounded=0;" edge="1" parent="v8-7jSsjd6N45ZcnOBG0-13">
          <mxGeometry width="50" height="50" relative="1" as="geometry">
            <mxPoint x="20" y="20" as="sourcePoint" />
            <mxPoint x="40" y="20" as="targetPoint" />
          </mxGeometry>
        </mxCell>
        <mxCell id="v8-7jSsjd6N45ZcnOBG0-17" value="" style="endArrow=classic;html=1;rounded=0;" edge="1" parent="v8-7jSsjd6N45ZcnOBG0-1">
          <mxGeometry width="50" height="50" relative="1" as="geometry">
            <mxPoint x="650" y="280" as="sourcePoint" />
            <mxPoint x="650" y="310" as="targetPoint" />
          </mxGeometry>
        </mxCell>
        <mxCell id="v8-7jSsjd6N45ZcnOBG0-18" value="34" style="rounded=0;whiteSpace=wrap;html=1;" vertex="1" parent="v8-7jSsjd6N45ZcnOBG0-1">
          <mxGeometry x="50" y="80" width="100" height="40" as="geometry" />
        </mxCell>
        <mxCell id="v8-7jSsjd6N45ZcnOBG0-20" value="" style="endArrow=classic;html=1;rounded=0;entryX=0.11;entryY=-0.025;entryDx=0;entryDy=0;entryPerimeter=0;" edge="1" parent="v8-7jSsjd6N45ZcnOBG0-1" target="v8-7jSsjd6N45ZcnOBG0-9">
          <mxGeometry width="50" height="50" relative="1" as="geometry">
            <mxPoint x="100" y="120" as="sourcePoint" />
            <mxPoint x="100" y="150" as="targetPoint" />
          </mxGeometry>
        </mxCell>
      </root>
    </mxGraphModel>
  </diagram>
  <diagram name="4" id="LYlK-dypwlbPNqoWNOt5">
    <mxGraphModel dx="1134" dy="690" grid="1" gridSize="10" guides="1" tooltips="1" connect="1" arrows="1" fold="1" page="1" pageScale="1" pageWidth="850" pageHeight="1100" math="0" shadow="0">
      <root>
        <mxCell id="TY5tyLGt5hhfZ8R0ey3a-0" />
        <mxCell id="TY5tyLGt5hhfZ8R0ey3a-1" parent="TY5tyLGt5hhfZ8R0ey3a-0" />
        <mxCell id="TY5tyLGt5hhfZ8R0ey3a-2" value="" style="rounded=0;whiteSpace=wrap;html=1;" vertex="1" parent="TY5tyLGt5hhfZ8R0ey3a-1">
          <mxGeometry x="320" y="40" width="205" height="80" as="geometry" />
        </mxCell>
        <mxCell id="TY5tyLGt5hhfZ8R0ey3a-3" value="Início" style="rounded=0;whiteSpace=wrap;html=1;" vertex="1" parent="TY5tyLGt5hhfZ8R0ey3a-1">
          <mxGeometry x="320" y="80" width="100" height="40" as="geometry" />
        </mxCell>
        <mxCell id="TY5tyLGt5hhfZ8R0ey3a-4" value="Fim" style="rounded=0;whiteSpace=wrap;html=1;" vertex="1" parent="TY5tyLGt5hhfZ8R0ey3a-1">
          <mxGeometry x="420" y="80" width="105" height="40" as="geometry" />
        </mxCell>
        <mxCell id="TY5tyLGt5hhfZ8R0ey3a-5" value="Lista" style="text;html=1;align=center;verticalAlign=middle;whiteSpace=wrap;rounded=0;" vertex="1" parent="TY5tyLGt5hhfZ8R0ey3a-1">
          <mxGeometry x="390" y="40" width="60" height="30" as="geometry" />
        </mxCell>
        <mxCell id="TY5tyLGt5hhfZ8R0ey3a-6" value="" style="endArrow=classic;html=1;rounded=0;exitX=0;exitY=0.5;exitDx=0;exitDy=0;entryX=1;entryY=0.5;entryDx=0;entryDy=0;" edge="1" parent="TY5tyLGt5hhfZ8R0ey3a-1" source="TY5tyLGt5hhfZ8R0ey3a-3" target="TY5tyLGt5hhfZ8R0ey3a-18">
          <mxGeometry width="50" height="50" relative="1" as="geometry">
            <mxPoint x="400" y="260" as="sourcePoint" />
            <mxPoint x="370" y="160" as="targetPoint" />
          </mxGeometry>
        </mxCell>
        <mxCell id="TY5tyLGt5hhfZ8R0ey3a-7" value="" style="endArrow=classic;html=1;rounded=0;exitX=0.5;exitY=1;exitDx=0;exitDy=0;entryX=0.5;entryY=0;entryDx=0;entryDy=0;" edge="1" parent="TY5tyLGt5hhfZ8R0ey3a-1" target="TY5tyLGt5hhfZ8R0ey3a-12">
          <mxGeometry width="50" height="50" relative="1" as="geometry">
            <mxPoint x="472" y="120" as="sourcePoint" />
            <mxPoint x="472" y="160" as="targetPoint" />
          </mxGeometry>
        </mxCell>
        <mxCell id="TY5tyLGt5hhfZ8R0ey3a-8" style="edgeStyle=orthogonalEdgeStyle;rounded=0;orthogonalLoop=1;jettySize=auto;html=1;entryX=0;entryY=0.5;entryDx=0;entryDy=0;" edge="1" parent="TY5tyLGt5hhfZ8R0ey3a-1" source="TY5tyLGt5hhfZ8R0ey3a-9" target="TY5tyLGt5hhfZ8R0ey3a-11">
          <mxGeometry relative="1" as="geometry" />
        </mxCell>
        <mxCell id="TY5tyLGt5hhfZ8R0ey3a-9" value="12" style="rounded=0;whiteSpace=wrap;html=1;" vertex="1" parent="TY5tyLGt5hhfZ8R0ey3a-1">
          <mxGeometry x="140" y="240" width="100" height="40" as="geometry" />
        </mxCell>
        <mxCell id="TY5tyLGt5hhfZ8R0ey3a-10" style="edgeStyle=orthogonalEdgeStyle;rounded=0;orthogonalLoop=1;jettySize=auto;html=1;" edge="1" parent="TY5tyLGt5hhfZ8R0ey3a-1" source="TY5tyLGt5hhfZ8R0ey3a-11" target="TY5tyLGt5hhfZ8R0ey3a-12">
          <mxGeometry relative="1" as="geometry" />
        </mxCell>
        <mxCell id="TY5tyLGt5hhfZ8R0ey3a-11" value="55" style="rounded=0;whiteSpace=wrap;html=1;" vertex="1" parent="TY5tyLGt5hhfZ8R0ey3a-1">
          <mxGeometry x="375" y="240" width="100" height="40" as="geometry" />
        </mxCell>
        <mxCell id="TY5tyLGt5hhfZ8R0ey3a-12" value="100" style="rounded=0;whiteSpace=wrap;html=1;" vertex="1" parent="TY5tyLGt5hhfZ8R0ey3a-1">
          <mxGeometry x="600" y="240" width="100" height="40" as="geometry" />
        </mxCell>
        <mxCell id="TY5tyLGt5hhfZ8R0ey3a-13" value="" style="group" vertex="1" connectable="0" parent="TY5tyLGt5hhfZ8R0ey3a-1">
          <mxGeometry x="620" y="310" width="60" height="20" as="geometry" />
        </mxCell>
        <mxCell id="TY5tyLGt5hhfZ8R0ey3a-14" value="" style="endArrow=none;html=1;rounded=0;" edge="1" parent="TY5tyLGt5hhfZ8R0ey3a-13">
          <mxGeometry width="50" height="50" relative="1" as="geometry">
            <mxPoint as="sourcePoint" />
            <mxPoint x="60" as="targetPoint" />
          </mxGeometry>
        </mxCell>
        <mxCell id="TY5tyLGt5hhfZ8R0ey3a-15" value="" style="endArrow=none;html=1;rounded=0;" edge="1" parent="TY5tyLGt5hhfZ8R0ey3a-13">
          <mxGeometry width="50" height="50" relative="1" as="geometry">
            <mxPoint x="10" y="10" as="sourcePoint" />
            <mxPoint x="50" y="10" as="targetPoint" />
          </mxGeometry>
        </mxCell>
        <mxCell id="TY5tyLGt5hhfZ8R0ey3a-16" value="" style="endArrow=none;html=1;rounded=0;" edge="1" parent="TY5tyLGt5hhfZ8R0ey3a-13">
          <mxGeometry width="50" height="50" relative="1" as="geometry">
            <mxPoint x="20" y="20" as="sourcePoint" />
            <mxPoint x="40" y="20" as="targetPoint" />
          </mxGeometry>
        </mxCell>
        <mxCell id="TY5tyLGt5hhfZ8R0ey3a-17" value="" style="endArrow=classic;html=1;rounded=0;" edge="1" parent="TY5tyLGt5hhfZ8R0ey3a-1">
          <mxGeometry width="50" height="50" relative="1" as="geometry">
            <mxPoint x="650" y="280" as="sourcePoint" />
            <mxPoint x="650" y="310" as="targetPoint" />
          </mxGeometry>
        </mxCell>
        <mxCell id="TY5tyLGt5hhfZ8R0ey3a-18" value="34" style="rounded=0;whiteSpace=wrap;html=1;" vertex="1" parent="TY5tyLGt5hhfZ8R0ey3a-1">
          <mxGeometry x="50" y="80" width="100" height="40" as="geometry" />
        </mxCell>
        <mxCell id="TY5tyLGt5hhfZ8R0ey3a-20" value="" style="endArrow=classic;html=1;rounded=0;entryX=0.11;entryY=-0.025;entryDx=0;entryDy=0;entryPerimeter=0;" edge="1" parent="TY5tyLGt5hhfZ8R0ey3a-1" target="TY5tyLGt5hhfZ8R0ey3a-9">
          <mxGeometry width="50" height="50" relative="1" as="geometry">
            <mxPoint x="100" y="120" as="sourcePoint" />
            <mxPoint x="100" y="150" as="targetPoint" />
          </mxGeometry>
        </mxCell>
      </root>
    </mxGraphModel>
  </diagram>
  <diagram name="5" id="b23nsgcKexROPOE4fBPM">
    <mxGraphModel dx="1134" dy="690" grid="1" gridSize="10" guides="1" tooltips="1" connect="1" arrows="1" fold="1" page="1" pageScale="1" pageWidth="850" pageHeight="1100" math="0" shadow="0">
      <root>
        <mxCell id="CBVVz8vyM6AcuJFie_rD-0" />
        <mxCell id="CBVVz8vyM6AcuJFie_rD-1" parent="CBVVz8vyM6AcuJFie_rD-0" />
        <mxCell id="CBVVz8vyM6AcuJFie_rD-2" value="" style="rounded=0;whiteSpace=wrap;html=1;" vertex="1" parent="CBVVz8vyM6AcuJFie_rD-1">
          <mxGeometry x="320" y="40" width="205" height="80" as="geometry" />
        </mxCell>
        <mxCell id="CBVVz8vyM6AcuJFie_rD-3" value="Início" style="rounded=0;whiteSpace=wrap;html=1;" vertex="1" parent="CBVVz8vyM6AcuJFie_rD-1">
          <mxGeometry x="320" y="80" width="100" height="40" as="geometry" />
        </mxCell>
        <mxCell id="CBVVz8vyM6AcuJFie_rD-4" value="Fim" style="rounded=0;whiteSpace=wrap;html=1;" vertex="1" parent="CBVVz8vyM6AcuJFie_rD-1">
          <mxGeometry x="420" y="80" width="105" height="40" as="geometry" />
        </mxCell>
        <mxCell id="CBVVz8vyM6AcuJFie_rD-5" value="Lista" style="text;html=1;align=center;verticalAlign=middle;whiteSpace=wrap;rounded=0;" vertex="1" parent="CBVVz8vyM6AcuJFie_rD-1">
          <mxGeometry x="390" y="40" width="60" height="30" as="geometry" />
        </mxCell>
        <mxCell id="CBVVz8vyM6AcuJFie_rD-6" value="" style="endArrow=classic;html=1;rounded=0;exitX=0;exitY=0.5;exitDx=0;exitDy=0;entryX=1;entryY=0.5;entryDx=0;entryDy=0;" edge="1" parent="CBVVz8vyM6AcuJFie_rD-1" source="CBVVz8vyM6AcuJFie_rD-3" target="CBVVz8vyM6AcuJFie_rD-18">
          <mxGeometry width="50" height="50" relative="1" as="geometry">
            <mxPoint x="400" y="260" as="sourcePoint" />
            <mxPoint x="370" y="160" as="targetPoint" />
          </mxGeometry>
        </mxCell>
        <mxCell id="CBVVz8vyM6AcuJFie_rD-7" value="" style="endArrow=classic;html=1;rounded=0;exitX=0.5;exitY=1;exitDx=0;exitDy=0;entryX=0.5;entryY=0;entryDx=0;entryDy=0;" edge="1" parent="CBVVz8vyM6AcuJFie_rD-1" target="CBVVz8vyM6AcuJFie_rD-12">
          <mxGeometry width="50" height="50" relative="1" as="geometry">
            <mxPoint x="472" y="120" as="sourcePoint" />
            <mxPoint x="472" y="160" as="targetPoint" />
          </mxGeometry>
        </mxCell>
        <mxCell id="CBVVz8vyM6AcuJFie_rD-8" style="edgeStyle=orthogonalEdgeStyle;rounded=0;orthogonalLoop=1;jettySize=auto;html=1;entryX=0;entryY=0.5;entryDx=0;entryDy=0;" edge="1" parent="CBVVz8vyM6AcuJFie_rD-1" source="CBVVz8vyM6AcuJFie_rD-9" target="CBVVz8vyM6AcuJFie_rD-11">
          <mxGeometry relative="1" as="geometry" />
        </mxCell>
        <mxCell id="CBVVz8vyM6AcuJFie_rD-9" value="12" style="rounded=0;whiteSpace=wrap;html=1;" vertex="1" parent="CBVVz8vyM6AcuJFie_rD-1">
          <mxGeometry x="140" y="240" width="100" height="40" as="geometry" />
        </mxCell>
        <mxCell id="CBVVz8vyM6AcuJFie_rD-10" style="edgeStyle=orthogonalEdgeStyle;rounded=0;orthogonalLoop=1;jettySize=auto;html=1;" edge="1" parent="CBVVz8vyM6AcuJFie_rD-1" source="CBVVz8vyM6AcuJFie_rD-11" target="CBVVz8vyM6AcuJFie_rD-12">
          <mxGeometry relative="1" as="geometry" />
        </mxCell>
        <mxCell id="CBVVz8vyM6AcuJFie_rD-11" value="55" style="rounded=0;whiteSpace=wrap;html=1;" vertex="1" parent="CBVVz8vyM6AcuJFie_rD-1">
          <mxGeometry x="375" y="240" width="100" height="40" as="geometry" />
        </mxCell>
        <mxCell id="CBVVz8vyM6AcuJFie_rD-12" value="100" style="rounded=0;whiteSpace=wrap;html=1;" vertex="1" parent="CBVVz8vyM6AcuJFie_rD-1">
          <mxGeometry x="600" y="240" width="100" height="40" as="geometry" />
        </mxCell>
        <mxCell id="CBVVz8vyM6AcuJFie_rD-13" value="" style="group" vertex="1" connectable="0" parent="CBVVz8vyM6AcuJFie_rD-1">
          <mxGeometry x="620" y="310" width="60" height="20" as="geometry" />
        </mxCell>
        <mxCell id="CBVVz8vyM6AcuJFie_rD-14" value="" style="endArrow=none;html=1;rounded=0;" edge="1" parent="CBVVz8vyM6AcuJFie_rD-13">
          <mxGeometry width="50" height="50" relative="1" as="geometry">
            <mxPoint as="sourcePoint" />
            <mxPoint x="60" as="targetPoint" />
          </mxGeometry>
        </mxCell>
        <mxCell id="CBVVz8vyM6AcuJFie_rD-15" value="" style="endArrow=none;html=1;rounded=0;" edge="1" parent="CBVVz8vyM6AcuJFie_rD-13">
          <mxGeometry width="50" height="50" relative="1" as="geometry">
            <mxPoint x="10" y="10" as="sourcePoint" />
            <mxPoint x="50" y="10" as="targetPoint" />
          </mxGeometry>
        </mxCell>
        <mxCell id="CBVVz8vyM6AcuJFie_rD-16" value="" style="endArrow=none;html=1;rounded=0;" edge="1" parent="CBVVz8vyM6AcuJFie_rD-13">
          <mxGeometry width="50" height="50" relative="1" as="geometry">
            <mxPoint x="20" y="20" as="sourcePoint" />
            <mxPoint x="40" y="20" as="targetPoint" />
          </mxGeometry>
        </mxCell>
        <mxCell id="CBVVz8vyM6AcuJFie_rD-17" value="" style="endArrow=classic;html=1;rounded=0;" edge="1" parent="CBVVz8vyM6AcuJFie_rD-1">
          <mxGeometry width="50" height="50" relative="1" as="geometry">
            <mxPoint x="650" y="280" as="sourcePoint" />
            <mxPoint x="650" y="310" as="targetPoint" />
          </mxGeometry>
        </mxCell>
        <mxCell id="CBVVz8vyM6AcuJFie_rD-18" value="34" style="rounded=0;whiteSpace=wrap;html=1;" vertex="1" parent="CBVVz8vyM6AcuJFie_rD-1">
          <mxGeometry x="50" y="80" width="100" height="40" as="geometry" />
        </mxCell>
        <mxCell id="CBVVz8vyM6AcuJFie_rD-20" value="" style="endArrow=classic;html=1;rounded=0;entryX=0.11;entryY=-0.025;entryDx=0;entryDy=0;entryPerimeter=0;" edge="1" parent="CBVVz8vyM6AcuJFie_rD-1" target="CBVVz8vyM6AcuJFie_rD-9">
          <mxGeometry width="50" height="50" relative="1" as="geometry">
            <mxPoint x="100" y="120" as="sourcePoint" />
            <mxPoint x="100" y="150" as="targetPoint" />
          </mxGeometry>
        </mxCell>
        <mxCell id="TIoKNkDM2QxAS4DL3eRB-0" value="1" style="rounded=0;whiteSpace=wrap;html=1;" vertex="1" parent="CBVVz8vyM6AcuJFie_rD-1">
          <mxGeometry x="720" y="100" width="100" height="40" as="geometry" />
        </mxCell>
        <mxCell id="TIoKNkDM2QxAS4DL3eRB-1" value="" style="group" vertex="1" connectable="0" parent="CBVVz8vyM6AcuJFie_rD-1">
          <mxGeometry x="740" y="170" width="60" height="20" as="geometry" />
        </mxCell>
        <mxCell id="TIoKNkDM2QxAS4DL3eRB-2" value="" style="endArrow=none;html=1;rounded=0;" edge="1" parent="TIoKNkDM2QxAS4DL3eRB-1">
          <mxGeometry width="50" height="50" relative="1" as="geometry">
            <mxPoint as="sourcePoint" />
            <mxPoint x="60" as="targetPoint" />
          </mxGeometry>
        </mxCell>
        <mxCell id="TIoKNkDM2QxAS4DL3eRB-3" value="" style="endArrow=none;html=1;rounded=0;" edge="1" parent="TIoKNkDM2QxAS4DL3eRB-1">
          <mxGeometry width="50" height="50" relative="1" as="geometry">
            <mxPoint x="10" y="10" as="sourcePoint" />
            <mxPoint x="50" y="10" as="targetPoint" />
          </mxGeometry>
        </mxCell>
        <mxCell id="TIoKNkDM2QxAS4DL3eRB-4" value="" style="endArrow=none;html=1;rounded=0;" edge="1" parent="TIoKNkDM2QxAS4DL3eRB-1">
          <mxGeometry width="50" height="50" relative="1" as="geometry">
            <mxPoint x="20" y="20" as="sourcePoint" />
            <mxPoint x="40" y="20" as="targetPoint" />
          </mxGeometry>
        </mxCell>
        <mxCell id="TIoKNkDM2QxAS4DL3eRB-5" value="" style="endArrow=classic;html=1;rounded=0;" edge="1" parent="CBVVz8vyM6AcuJFie_rD-1">
          <mxGeometry width="50" height="50" relative="1" as="geometry">
            <mxPoint x="770" y="140" as="sourcePoint" />
            <mxPoint x="770" y="170" as="targetPoint" />
          </mxGeometry>
        </mxCell>
        <mxCell id="aLKuD_R9gJ0FlYiEb-5m-0" value="Inserir no fim" style="text;html=1;align=center;verticalAlign=middle;resizable=0;points=[];autosize=1;strokeColor=none;fillColor=none;" vertex="1" parent="CBVVz8vyM6AcuJFie_rD-1">
          <mxGeometry x="720" y="60" width="90" height="30" as="geometry" />
        </mxCell>
      </root>
    </mxGraphModel>
  </diagram>
  <diagram name="6" id="t_lhpx3qVgNZt8ka7Vgh">
    <mxGraphModel dx="1134" dy="690" grid="1" gridSize="10" guides="1" tooltips="1" connect="1" arrows="1" fold="1" page="1" pageScale="1" pageWidth="850" pageHeight="1100" math="0" shadow="0">
      <root>
        <mxCell id="AP0I8lBm5F-CL9YpkkhU-0" />
        <mxCell id="AP0I8lBm5F-CL9YpkkhU-1" parent="AP0I8lBm5F-CL9YpkkhU-0" />
        <mxCell id="AP0I8lBm5F-CL9YpkkhU-2" value="" style="rounded=0;whiteSpace=wrap;html=1;" vertex="1" parent="AP0I8lBm5F-CL9YpkkhU-1">
          <mxGeometry x="320" y="40" width="205" height="80" as="geometry" />
        </mxCell>
        <mxCell id="AP0I8lBm5F-CL9YpkkhU-3" value="Início" style="rounded=0;whiteSpace=wrap;html=1;" vertex="1" parent="AP0I8lBm5F-CL9YpkkhU-1">
          <mxGeometry x="320" y="80" width="100" height="40" as="geometry" />
        </mxCell>
        <mxCell id="AP0I8lBm5F-CL9YpkkhU-4" value="Fim" style="rounded=0;whiteSpace=wrap;html=1;" vertex="1" parent="AP0I8lBm5F-CL9YpkkhU-1">
          <mxGeometry x="420" y="80" width="105" height="40" as="geometry" />
        </mxCell>
        <mxCell id="AP0I8lBm5F-CL9YpkkhU-5" value="Lista" style="text;html=1;align=center;verticalAlign=middle;whiteSpace=wrap;rounded=0;" vertex="1" parent="AP0I8lBm5F-CL9YpkkhU-1">
          <mxGeometry x="390" y="40" width="60" height="30" as="geometry" />
        </mxCell>
        <mxCell id="AP0I8lBm5F-CL9YpkkhU-6" value="" style="endArrow=classic;html=1;rounded=0;exitX=0;exitY=0.5;exitDx=0;exitDy=0;entryX=1;entryY=0.5;entryDx=0;entryDy=0;" edge="1" parent="AP0I8lBm5F-CL9YpkkhU-1" source="AP0I8lBm5F-CL9YpkkhU-3" target="AP0I8lBm5F-CL9YpkkhU-18">
          <mxGeometry width="50" height="50" relative="1" as="geometry">
            <mxPoint x="400" y="260" as="sourcePoint" />
            <mxPoint x="370" y="160" as="targetPoint" />
          </mxGeometry>
        </mxCell>
        <mxCell id="AP0I8lBm5F-CL9YpkkhU-7" value="" style="endArrow=classic;html=1;rounded=0;exitX=0.5;exitY=1;exitDx=0;exitDy=0;entryX=0.5;entryY=0;entryDx=0;entryDy=0;" edge="1" parent="AP0I8lBm5F-CL9YpkkhU-1" target="AP0I8lBm5F-CL9YpkkhU-12">
          <mxGeometry width="50" height="50" relative="1" as="geometry">
            <mxPoint x="472" y="120" as="sourcePoint" />
            <mxPoint x="472" y="160" as="targetPoint" />
          </mxGeometry>
        </mxCell>
        <mxCell id="AP0I8lBm5F-CL9YpkkhU-8" style="edgeStyle=orthogonalEdgeStyle;rounded=0;orthogonalLoop=1;jettySize=auto;html=1;entryX=0;entryY=0.5;entryDx=0;entryDy=0;" edge="1" parent="AP0I8lBm5F-CL9YpkkhU-1" source="AP0I8lBm5F-CL9YpkkhU-9" target="AP0I8lBm5F-CL9YpkkhU-11">
          <mxGeometry relative="1" as="geometry" />
        </mxCell>
        <mxCell id="AP0I8lBm5F-CL9YpkkhU-9" value="12" style="rounded=0;whiteSpace=wrap;html=1;" vertex="1" parent="AP0I8lBm5F-CL9YpkkhU-1">
          <mxGeometry x="140" y="240" width="100" height="40" as="geometry" />
        </mxCell>
        <mxCell id="AP0I8lBm5F-CL9YpkkhU-10" style="edgeStyle=orthogonalEdgeStyle;rounded=0;orthogonalLoop=1;jettySize=auto;html=1;" edge="1" parent="AP0I8lBm5F-CL9YpkkhU-1" source="AP0I8lBm5F-CL9YpkkhU-11" target="AP0I8lBm5F-CL9YpkkhU-12">
          <mxGeometry relative="1" as="geometry" />
        </mxCell>
        <mxCell id="AP0I8lBm5F-CL9YpkkhU-11" value="55" style="rounded=0;whiteSpace=wrap;html=1;" vertex="1" parent="AP0I8lBm5F-CL9YpkkhU-1">
          <mxGeometry x="375" y="240" width="100" height="40" as="geometry" />
        </mxCell>
        <mxCell id="AP0I8lBm5F-CL9YpkkhU-12" value="100" style="rounded=0;whiteSpace=wrap;html=1;" vertex="1" parent="AP0I8lBm5F-CL9YpkkhU-1">
          <mxGeometry x="600" y="240" width="100" height="40" as="geometry" />
        </mxCell>
        <mxCell id="AP0I8lBm5F-CL9YpkkhU-17" value="" style="endArrow=classic;html=1;rounded=0;entryX=0.5;entryY=0;entryDx=0;entryDy=0;" edge="1" parent="AP0I8lBm5F-CL9YpkkhU-1" target="AP0I8lBm5F-CL9YpkkhU-21">
          <mxGeometry width="50" height="50" relative="1" as="geometry">
            <mxPoint x="650" y="280" as="sourcePoint" />
            <mxPoint x="650" y="310" as="targetPoint" />
          </mxGeometry>
        </mxCell>
        <mxCell id="AP0I8lBm5F-CL9YpkkhU-18" value="34" style="rounded=0;whiteSpace=wrap;html=1;" vertex="1" parent="AP0I8lBm5F-CL9YpkkhU-1">
          <mxGeometry x="50" y="80" width="100" height="40" as="geometry" />
        </mxCell>
        <mxCell id="AP0I8lBm5F-CL9YpkkhU-20" value="" style="endArrow=classic;html=1;rounded=0;entryX=0.11;entryY=-0.025;entryDx=0;entryDy=0;entryPerimeter=0;" edge="1" parent="AP0I8lBm5F-CL9YpkkhU-1" target="AP0I8lBm5F-CL9YpkkhU-9">
          <mxGeometry width="50" height="50" relative="1" as="geometry">
            <mxPoint x="100" y="120" as="sourcePoint" />
            <mxPoint x="100" y="150" as="targetPoint" />
          </mxGeometry>
        </mxCell>
        <mxCell id="AP0I8lBm5F-CL9YpkkhU-21" value="1" style="rounded=0;whiteSpace=wrap;html=1;" vertex="1" parent="AP0I8lBm5F-CL9YpkkhU-1">
          <mxGeometry x="600" y="370" width="100" height="40" as="geometry" />
        </mxCell>
        <mxCell id="AP0I8lBm5F-CL9YpkkhU-22" value="" style="group" vertex="1" connectable="0" parent="AP0I8lBm5F-CL9YpkkhU-1">
          <mxGeometry x="620" y="440" width="60" height="20" as="geometry" />
        </mxCell>
        <mxCell id="AP0I8lBm5F-CL9YpkkhU-23" value="" style="endArrow=none;html=1;rounded=0;" edge="1" parent="AP0I8lBm5F-CL9YpkkhU-22">
          <mxGeometry width="50" height="50" relative="1" as="geometry">
            <mxPoint as="sourcePoint" />
            <mxPoint x="60" as="targetPoint" />
          </mxGeometry>
        </mxCell>
        <mxCell id="AP0I8lBm5F-CL9YpkkhU-24" value="" style="endArrow=none;html=1;rounded=0;" edge="1" parent="AP0I8lBm5F-CL9YpkkhU-22">
          <mxGeometry width="50" height="50" relative="1" as="geometry">
            <mxPoint x="10" y="10" as="sourcePoint" />
            <mxPoint x="50" y="10" as="targetPoint" />
          </mxGeometry>
        </mxCell>
        <mxCell id="AP0I8lBm5F-CL9YpkkhU-25" value="" style="endArrow=none;html=1;rounded=0;" edge="1" parent="AP0I8lBm5F-CL9YpkkhU-22">
          <mxGeometry width="50" height="50" relative="1" as="geometry">
            <mxPoint x="20" y="20" as="sourcePoint" />
            <mxPoint x="40" y="20" as="targetPoint" />
          </mxGeometry>
        </mxCell>
        <mxCell id="AP0I8lBm5F-CL9YpkkhU-26" value="" style="endArrow=classic;html=1;rounded=0;" edge="1" parent="AP0I8lBm5F-CL9YpkkhU-1">
          <mxGeometry width="50" height="50" relative="1" as="geometry">
            <mxPoint x="650" y="410" as="sourcePoint" />
            <mxPoint x="650" y="440" as="targetPoint" />
          </mxGeometry>
        </mxCell>
      </root>
    </mxGraphModel>
  </diagram>
  <diagram name="7" id="T_RORoFa8l1JXya-K0nO">
    <mxGraphModel dx="1134" dy="690" grid="1" gridSize="10" guides="1" tooltips="1" connect="1" arrows="1" fold="1" page="1" pageScale="1" pageWidth="850" pageHeight="1100" math="0" shadow="0">
      <root>
        <mxCell id="XvXi_TPqxcxaKN3CRDzL-0" />
        <mxCell id="XvXi_TPqxcxaKN3CRDzL-1" parent="XvXi_TPqxcxaKN3CRDzL-0" />
        <mxCell id="XvXi_TPqxcxaKN3CRDzL-2" value="" style="rounded=0;whiteSpace=wrap;html=1;" vertex="1" parent="XvXi_TPqxcxaKN3CRDzL-1">
          <mxGeometry x="320" y="40" width="205" height="80" as="geometry" />
        </mxCell>
        <mxCell id="XvXi_TPqxcxaKN3CRDzL-3" value="Início" style="rounded=0;whiteSpace=wrap;html=1;" vertex="1" parent="XvXi_TPqxcxaKN3CRDzL-1">
          <mxGeometry x="320" y="80" width="100" height="40" as="geometry" />
        </mxCell>
        <mxCell id="XvXi_TPqxcxaKN3CRDzL-4" value="Fim" style="rounded=0;whiteSpace=wrap;html=1;" vertex="1" parent="XvXi_TPqxcxaKN3CRDzL-1">
          <mxGeometry x="420" y="80" width="105" height="40" as="geometry" />
        </mxCell>
        <mxCell id="XvXi_TPqxcxaKN3CRDzL-5" value="Lista" style="text;html=1;align=center;verticalAlign=middle;whiteSpace=wrap;rounded=0;" vertex="1" parent="XvXi_TPqxcxaKN3CRDzL-1">
          <mxGeometry x="390" y="40" width="60" height="30" as="geometry" />
        </mxCell>
        <mxCell id="XvXi_TPqxcxaKN3CRDzL-6" value="" style="endArrow=classic;html=1;rounded=0;exitX=0;exitY=0.5;exitDx=0;exitDy=0;entryX=1;entryY=0.5;entryDx=0;entryDy=0;" edge="1" parent="XvXi_TPqxcxaKN3CRDzL-1" source="XvXi_TPqxcxaKN3CRDzL-3" target="XvXi_TPqxcxaKN3CRDzL-14">
          <mxGeometry width="50" height="50" relative="1" as="geometry">
            <mxPoint x="400" y="260" as="sourcePoint" />
            <mxPoint x="370" y="160" as="targetPoint" />
          </mxGeometry>
        </mxCell>
        <mxCell id="XvXi_TPqxcxaKN3CRDzL-7" value="" style="endArrow=classic;html=1;rounded=0;exitX=0.5;exitY=1;exitDx=0;exitDy=0;entryX=0.5;entryY=0;entryDx=0;entryDy=0;" edge="1" parent="XvXi_TPqxcxaKN3CRDzL-1" target="XvXi_TPqxcxaKN3CRDzL-16">
          <mxGeometry width="50" height="50" relative="1" as="geometry">
            <mxPoint x="472" y="120" as="sourcePoint" />
            <mxPoint x="472" y="160" as="targetPoint" />
          </mxGeometry>
        </mxCell>
        <mxCell id="XvXi_TPqxcxaKN3CRDzL-8" style="edgeStyle=orthogonalEdgeStyle;rounded=0;orthogonalLoop=1;jettySize=auto;html=1;entryX=0;entryY=0.5;entryDx=0;entryDy=0;" edge="1" parent="XvXi_TPqxcxaKN3CRDzL-1" source="XvXi_TPqxcxaKN3CRDzL-9" target="XvXi_TPqxcxaKN3CRDzL-11">
          <mxGeometry relative="1" as="geometry" />
        </mxCell>
        <mxCell id="XvXi_TPqxcxaKN3CRDzL-9" value="12" style="rounded=0;whiteSpace=wrap;html=1;" vertex="1" parent="XvXi_TPqxcxaKN3CRDzL-1">
          <mxGeometry x="140" y="240" width="100" height="40" as="geometry" />
        </mxCell>
        <mxCell id="XvXi_TPqxcxaKN3CRDzL-10" style="edgeStyle=orthogonalEdgeStyle;rounded=0;orthogonalLoop=1;jettySize=auto;html=1;" edge="1" parent="XvXi_TPqxcxaKN3CRDzL-1" source="XvXi_TPqxcxaKN3CRDzL-11" target="XvXi_TPqxcxaKN3CRDzL-12">
          <mxGeometry relative="1" as="geometry" />
        </mxCell>
        <mxCell id="XvXi_TPqxcxaKN3CRDzL-11" value="55" style="rounded=0;whiteSpace=wrap;html=1;" vertex="1" parent="XvXi_TPqxcxaKN3CRDzL-1">
          <mxGeometry x="310" y="240" width="100" height="40" as="geometry" />
        </mxCell>
        <mxCell id="XvXi_TPqxcxaKN3CRDzL-12" value="100" style="rounded=0;whiteSpace=wrap;html=1;" vertex="1" parent="XvXi_TPqxcxaKN3CRDzL-1">
          <mxGeometry x="480" y="240" width="100" height="40" as="geometry" />
        </mxCell>
        <mxCell id="XvXi_TPqxcxaKN3CRDzL-13" value="" style="endArrow=classic;html=1;rounded=0;entryX=0;entryY=0.5;entryDx=0;entryDy=0;exitX=1;exitY=0.5;exitDx=0;exitDy=0;" edge="1" parent="XvXi_TPqxcxaKN3CRDzL-1" target="XvXi_TPqxcxaKN3CRDzL-16" source="XvXi_TPqxcxaKN3CRDzL-12">
          <mxGeometry width="50" height="50" relative="1" as="geometry">
            <mxPoint x="650" y="280" as="sourcePoint" />
            <mxPoint x="650" y="310" as="targetPoint" />
          </mxGeometry>
        </mxCell>
        <mxCell id="XvXi_TPqxcxaKN3CRDzL-14" value="34" style="rounded=0;whiteSpace=wrap;html=1;" vertex="1" parent="XvXi_TPqxcxaKN3CRDzL-1">
          <mxGeometry x="50" y="80" width="100" height="40" as="geometry" />
        </mxCell>
        <mxCell id="XvXi_TPqxcxaKN3CRDzL-15" value="" style="endArrow=classic;html=1;rounded=0;entryX=0.11;entryY=-0.025;entryDx=0;entryDy=0;entryPerimeter=0;" edge="1" parent="XvXi_TPqxcxaKN3CRDzL-1" target="XvXi_TPqxcxaKN3CRDzL-9">
          <mxGeometry width="50" height="50" relative="1" as="geometry">
            <mxPoint x="100" y="120" as="sourcePoint" />
            <mxPoint x="100" y="150" as="targetPoint" />
          </mxGeometry>
        </mxCell>
        <mxCell id="XvXi_TPqxcxaKN3CRDzL-16" value="1" style="rounded=0;whiteSpace=wrap;html=1;" vertex="1" parent="XvXi_TPqxcxaKN3CRDzL-1">
          <mxGeometry x="670" y="240" width="100" height="40" as="geometry" />
        </mxCell>
        <mxCell id="XvXi_TPqxcxaKN3CRDzL-17" value="" style="group" vertex="1" connectable="0" parent="XvXi_TPqxcxaKN3CRDzL-1">
          <mxGeometry x="690" y="310" width="60" height="20" as="geometry" />
        </mxCell>
        <mxCell id="XvXi_TPqxcxaKN3CRDzL-18" value="" style="endArrow=none;html=1;rounded=0;" edge="1" parent="XvXi_TPqxcxaKN3CRDzL-17">
          <mxGeometry width="50" height="50" relative="1" as="geometry">
            <mxPoint as="sourcePoint" />
            <mxPoint x="60" as="targetPoint" />
          </mxGeometry>
        </mxCell>
        <mxCell id="XvXi_TPqxcxaKN3CRDzL-19" value="" style="endArrow=none;html=1;rounded=0;" edge="1" parent="XvXi_TPqxcxaKN3CRDzL-17">
          <mxGeometry width="50" height="50" relative="1" as="geometry">
            <mxPoint x="10" y="10" as="sourcePoint" />
            <mxPoint x="50" y="10" as="targetPoint" />
          </mxGeometry>
        </mxCell>
        <mxCell id="XvXi_TPqxcxaKN3CRDzL-20" value="" style="endArrow=none;html=1;rounded=0;" edge="1" parent="XvXi_TPqxcxaKN3CRDzL-17">
          <mxGeometry width="50" height="50" relative="1" as="geometry">
            <mxPoint x="20" y="20" as="sourcePoint" />
            <mxPoint x="40" y="20" as="targetPoint" />
          </mxGeometry>
        </mxCell>
        <mxCell id="XvXi_TPqxcxaKN3CRDzL-21" value="" style="endArrow=classic;html=1;rounded=0;" edge="1" parent="XvXi_TPqxcxaKN3CRDzL-1">
          <mxGeometry width="50" height="50" relative="1" as="geometry">
            <mxPoint x="720" y="280" as="sourcePoint" />
            <mxPoint x="720" y="310" as="targetPoint" />
          </mxGeometry>
        </mxCell>
      </root>
    </mxGraphModel>
  </diagram>
  <diagram name="8" id="uBM1g6s7TxxbPJmVMXDM">
    <mxGraphModel dx="1134" dy="690" grid="1" gridSize="10" guides="1" tooltips="1" connect="1" arrows="1" fold="1" page="1" pageScale="1" pageWidth="850" pageHeight="1100" math="0" shadow="0">
      <root>
        <mxCell id="hn2i0tL67XlhivFN3v2P-0" />
        <mxCell id="hn2i0tL67XlhivFN3v2P-1" parent="hn2i0tL67XlhivFN3v2P-0" />
        <mxCell id="hn2i0tL67XlhivFN3v2P-2" value="" style="rounded=0;whiteSpace=wrap;html=1;" vertex="1" parent="hn2i0tL67XlhivFN3v2P-1">
          <mxGeometry x="320" y="40" width="205" height="80" as="geometry" />
        </mxCell>
        <mxCell id="hn2i0tL67XlhivFN3v2P-3" value="Início" style="rounded=0;whiteSpace=wrap;html=1;" vertex="1" parent="hn2i0tL67XlhivFN3v2P-1">
          <mxGeometry x="320" y="80" width="100" height="40" as="geometry" />
        </mxCell>
        <mxCell id="hn2i0tL67XlhivFN3v2P-4" value="Fim" style="rounded=0;whiteSpace=wrap;html=1;" vertex="1" parent="hn2i0tL67XlhivFN3v2P-1">
          <mxGeometry x="420" y="80" width="105" height="40" as="geometry" />
        </mxCell>
        <mxCell id="hn2i0tL67XlhivFN3v2P-5" value="Lista" style="text;html=1;align=center;verticalAlign=middle;whiteSpace=wrap;rounded=0;" vertex="1" parent="hn2i0tL67XlhivFN3v2P-1">
          <mxGeometry x="390" y="40" width="60" height="30" as="geometry" />
        </mxCell>
        <mxCell id="hn2i0tL67XlhivFN3v2P-6" value="" style="endArrow=classic;html=1;rounded=0;exitX=0;exitY=0.5;exitDx=0;exitDy=0;entryX=1;entryY=0.5;entryDx=0;entryDy=0;" edge="1" parent="hn2i0tL67XlhivFN3v2P-1" source="hn2i0tL67XlhivFN3v2P-3" target="hn2i0tL67XlhivFN3v2P-14">
          <mxGeometry width="50" height="50" relative="1" as="geometry">
            <mxPoint x="400" y="260" as="sourcePoint" />
            <mxPoint x="370" y="160" as="targetPoint" />
          </mxGeometry>
        </mxCell>
        <mxCell id="hn2i0tL67XlhivFN3v2P-7" value="" style="endArrow=classic;html=1;rounded=0;exitX=0.5;exitY=1;exitDx=0;exitDy=0;entryX=0.5;entryY=0;entryDx=0;entryDy=0;" edge="1" parent="hn2i0tL67XlhivFN3v2P-1" target="hn2i0tL67XlhivFN3v2P-16">
          <mxGeometry width="50" height="50" relative="1" as="geometry">
            <mxPoint x="472" y="120" as="sourcePoint" />
            <mxPoint x="472" y="160" as="targetPoint" />
          </mxGeometry>
        </mxCell>
        <mxCell id="hn2i0tL67XlhivFN3v2P-8" style="edgeStyle=orthogonalEdgeStyle;rounded=0;orthogonalLoop=1;jettySize=auto;html=1;entryX=0;entryY=0.5;entryDx=0;entryDy=0;" edge="1" parent="hn2i0tL67XlhivFN3v2P-1" source="hn2i0tL67XlhivFN3v2P-9" target="hn2i0tL67XlhivFN3v2P-11">
          <mxGeometry relative="1" as="geometry" />
        </mxCell>
        <mxCell id="hn2i0tL67XlhivFN3v2P-9" value="12" style="rounded=0;whiteSpace=wrap;html=1;" vertex="1" parent="hn2i0tL67XlhivFN3v2P-1">
          <mxGeometry x="140" y="240" width="100" height="40" as="geometry" />
        </mxCell>
        <mxCell id="hn2i0tL67XlhivFN3v2P-10" style="edgeStyle=orthogonalEdgeStyle;rounded=0;orthogonalLoop=1;jettySize=auto;html=1;" edge="1" parent="hn2i0tL67XlhivFN3v2P-1" source="hn2i0tL67XlhivFN3v2P-11" target="hn2i0tL67XlhivFN3v2P-12">
          <mxGeometry relative="1" as="geometry" />
        </mxCell>
        <mxCell id="hn2i0tL67XlhivFN3v2P-11" value="55" style="rounded=0;whiteSpace=wrap;html=1;" vertex="1" parent="hn2i0tL67XlhivFN3v2P-1">
          <mxGeometry x="310" y="240" width="100" height="40" as="geometry" />
        </mxCell>
        <mxCell id="hn2i0tL67XlhivFN3v2P-12" value="100" style="rounded=0;whiteSpace=wrap;html=1;" vertex="1" parent="hn2i0tL67XlhivFN3v2P-1">
          <mxGeometry x="480" y="240" width="100" height="40" as="geometry" />
        </mxCell>
        <mxCell id="hn2i0tL67XlhivFN3v2P-13" value="" style="endArrow=classic;html=1;rounded=0;entryX=0;entryY=0.5;entryDx=0;entryDy=0;exitX=1;exitY=0.5;exitDx=0;exitDy=0;" edge="1" parent="hn2i0tL67XlhivFN3v2P-1" source="hn2i0tL67XlhivFN3v2P-12" target="hn2i0tL67XlhivFN3v2P-16">
          <mxGeometry width="50" height="50" relative="1" as="geometry">
            <mxPoint x="650" y="280" as="sourcePoint" />
            <mxPoint x="650" y="310" as="targetPoint" />
          </mxGeometry>
        </mxCell>
        <mxCell id="hn2i0tL67XlhivFN3v2P-14" value="34" style="rounded=0;whiteSpace=wrap;html=1;" vertex="1" parent="hn2i0tL67XlhivFN3v2P-1">
          <mxGeometry x="50" y="80" width="100" height="40" as="geometry" />
        </mxCell>
        <mxCell id="hn2i0tL67XlhivFN3v2P-15" value="" style="endArrow=classic;html=1;rounded=0;entryX=0.11;entryY=-0.025;entryDx=0;entryDy=0;entryPerimeter=0;" edge="1" parent="hn2i0tL67XlhivFN3v2P-1" target="hn2i0tL67XlhivFN3v2P-9">
          <mxGeometry width="50" height="50" relative="1" as="geometry">
            <mxPoint x="100" y="120" as="sourcePoint" />
            <mxPoint x="100" y="150" as="targetPoint" />
          </mxGeometry>
        </mxCell>
        <mxCell id="hn2i0tL67XlhivFN3v2P-16" value="1" style="rounded=0;whiteSpace=wrap;html=1;" vertex="1" parent="hn2i0tL67XlhivFN3v2P-1">
          <mxGeometry x="670" y="240" width="100" height="40" as="geometry" />
        </mxCell>
        <mxCell id="hn2i0tL67XlhivFN3v2P-17" value="" style="group" vertex="1" connectable="0" parent="hn2i0tL67XlhivFN3v2P-1">
          <mxGeometry x="690" y="310" width="60" height="20" as="geometry" />
        </mxCell>
        <mxCell id="hn2i0tL67XlhivFN3v2P-18" value="" style="endArrow=none;html=1;rounded=0;" edge="1" parent="hn2i0tL67XlhivFN3v2P-17">
          <mxGeometry width="50" height="50" relative="1" as="geometry">
            <mxPoint as="sourcePoint" />
            <mxPoint x="60" as="targetPoint" />
          </mxGeometry>
        </mxCell>
        <mxCell id="hn2i0tL67XlhivFN3v2P-19" value="" style="endArrow=none;html=1;rounded=0;" edge="1" parent="hn2i0tL67XlhivFN3v2P-17">
          <mxGeometry width="50" height="50" relative="1" as="geometry">
            <mxPoint x="10" y="10" as="sourcePoint" />
            <mxPoint x="50" y="10" as="targetPoint" />
          </mxGeometry>
        </mxCell>
        <mxCell id="hn2i0tL67XlhivFN3v2P-20" value="" style="endArrow=none;html=1;rounded=0;" edge="1" parent="hn2i0tL67XlhivFN3v2P-17">
          <mxGeometry width="50" height="50" relative="1" as="geometry">
            <mxPoint x="20" y="20" as="sourcePoint" />
            <mxPoint x="40" y="20" as="targetPoint" />
          </mxGeometry>
        </mxCell>
        <mxCell id="hn2i0tL67XlhivFN3v2P-21" value="" style="endArrow=classic;html=1;rounded=0;" edge="1" parent="hn2i0tL67XlhivFN3v2P-1">
          <mxGeometry width="50" height="50" relative="1" as="geometry">
            <mxPoint x="720" y="280" as="sourcePoint" />
            <mxPoint x="720" y="310" as="targetPoint" />
          </mxGeometry>
        </mxCell>
        <mxCell id="tEKPYkLJQQ59N5qBQdxj-0" value="324" style="rounded=0;whiteSpace=wrap;html=1;" vertex="1" parent="hn2i0tL67XlhivFN3v2P-1">
          <mxGeometry x="670" y="35" width="100" height="40" as="geometry" />
        </mxCell>
        <mxCell id="tEKPYkLJQQ59N5qBQdxj-1" value="" style="group" vertex="1" connectable="0" parent="hn2i0tL67XlhivFN3v2P-1">
          <mxGeometry x="690" y="110" width="60" height="20" as="geometry" />
        </mxCell>
        <mxCell id="tEKPYkLJQQ59N5qBQdxj-2" value="" style="endArrow=none;html=1;rounded=0;" edge="1" parent="tEKPYkLJQQ59N5qBQdxj-1">
          <mxGeometry width="50" height="50" relative="1" as="geometry">
            <mxPoint as="sourcePoint" />
            <mxPoint x="60" as="targetPoint" />
          </mxGeometry>
        </mxCell>
        <mxCell id="tEKPYkLJQQ59N5qBQdxj-3" value="" style="endArrow=none;html=1;rounded=0;" edge="1" parent="tEKPYkLJQQ59N5qBQdxj-1">
          <mxGeometry width="50" height="50" relative="1" as="geometry">
            <mxPoint x="10" y="10" as="sourcePoint" />
            <mxPoint x="50" y="10" as="targetPoint" />
          </mxGeometry>
        </mxCell>
        <mxCell id="tEKPYkLJQQ59N5qBQdxj-4" value="" style="endArrow=none;html=1;rounded=0;" edge="1" parent="tEKPYkLJQQ59N5qBQdxj-1">
          <mxGeometry width="50" height="50" relative="1" as="geometry">
            <mxPoint x="20" y="20" as="sourcePoint" />
            <mxPoint x="40" y="20" as="targetPoint" />
          </mxGeometry>
        </mxCell>
        <mxCell id="tEKPYkLJQQ59N5qBQdxj-5" value="" style="endArrow=classic;html=1;rounded=0;" edge="1" parent="hn2i0tL67XlhivFN3v2P-1">
          <mxGeometry width="50" height="50" relative="1" as="geometry">
            <mxPoint x="720" y="80" as="sourcePoint" />
            <mxPoint x="720" y="110" as="targetPoint" />
          </mxGeometry>
        </mxCell>
        <mxCell id="pWSpATwWOKyP8RYR-MkJ-0" value="Inserir na posição" style="text;html=1;align=center;verticalAlign=middle;resizable=0;points=[];autosize=1;strokeColor=none;fillColor=none;" vertex="1" parent="hn2i0tL67XlhivFN3v2P-1">
          <mxGeometry x="660" width="120" height="30" as="geometry" />
        </mxCell>
      </root>
    </mxGraphModel>
  </diagram>
  <diagram name="9" id="3QtwTKQwpNCxAhrQ6kuZ">
    <mxGraphModel dx="1134" dy="690" grid="1" gridSize="10" guides="1" tooltips="1" connect="1" arrows="1" fold="1" page="1" pageScale="1" pageWidth="850" pageHeight="1100" math="0" shadow="0">
      <root>
        <mxCell id="qoGqqS2xH7TkXtHpmUU5-0" />
        <mxCell id="qoGqqS2xH7TkXtHpmUU5-1" parent="qoGqqS2xH7TkXtHpmUU5-0" />
        <mxCell id="qoGqqS2xH7TkXtHpmUU5-2" value="" style="rounded=0;whiteSpace=wrap;html=1;" vertex="1" parent="qoGqqS2xH7TkXtHpmUU5-1">
          <mxGeometry x="320" y="40" width="205" height="80" as="geometry" />
        </mxCell>
        <mxCell id="qoGqqS2xH7TkXtHpmUU5-3" value="Início" style="rounded=0;whiteSpace=wrap;html=1;" vertex="1" parent="qoGqqS2xH7TkXtHpmUU5-1">
          <mxGeometry x="320" y="80" width="100" height="40" as="geometry" />
        </mxCell>
        <mxCell id="qoGqqS2xH7TkXtHpmUU5-4" value="Fim" style="rounded=0;whiteSpace=wrap;html=1;" vertex="1" parent="qoGqqS2xH7TkXtHpmUU5-1">
          <mxGeometry x="420" y="80" width="105" height="40" as="geometry" />
        </mxCell>
        <mxCell id="qoGqqS2xH7TkXtHpmUU5-5" value="Lista" style="text;html=1;align=center;verticalAlign=middle;whiteSpace=wrap;rounded=0;" vertex="1" parent="qoGqqS2xH7TkXtHpmUU5-1">
          <mxGeometry x="390" y="40" width="60" height="30" as="geometry" />
        </mxCell>
        <mxCell id="qoGqqS2xH7TkXtHpmUU5-6" value="" style="endArrow=classic;html=1;rounded=0;exitX=0;exitY=0.5;exitDx=0;exitDy=0;entryX=1;entryY=0.5;entryDx=0;entryDy=0;" edge="1" parent="qoGqqS2xH7TkXtHpmUU5-1" source="qoGqqS2xH7TkXtHpmUU5-3" target="qoGqqS2xH7TkXtHpmUU5-14">
          <mxGeometry width="50" height="50" relative="1" as="geometry">
            <mxPoint x="400" y="260" as="sourcePoint" />
            <mxPoint x="370" y="160" as="targetPoint" />
          </mxGeometry>
        </mxCell>
        <mxCell id="qoGqqS2xH7TkXtHpmUU5-7" value="" style="endArrow=classic;html=1;rounded=0;exitX=0.5;exitY=1;exitDx=0;exitDy=0;entryX=0.5;entryY=0;entryDx=0;entryDy=0;" edge="1" parent="qoGqqS2xH7TkXtHpmUU5-1" target="qoGqqS2xH7TkXtHpmUU5-16">
          <mxGeometry width="50" height="50" relative="1" as="geometry">
            <mxPoint x="472" y="120" as="sourcePoint" />
            <mxPoint x="472" y="160" as="targetPoint" />
          </mxGeometry>
        </mxCell>
        <mxCell id="qoGqqS2xH7TkXtHpmUU5-8" style="edgeStyle=orthogonalEdgeStyle;rounded=0;orthogonalLoop=1;jettySize=auto;html=1;entryX=0;entryY=0.5;entryDx=0;entryDy=0;" edge="1" parent="qoGqqS2xH7TkXtHpmUU5-1" source="qoGqqS2xH7TkXtHpmUU5-9" target="qoGqqS2xH7TkXtHpmUU5-11">
          <mxGeometry relative="1" as="geometry" />
        </mxCell>
        <mxCell id="qoGqqS2xH7TkXtHpmUU5-9" value="12" style="rounded=0;whiteSpace=wrap;html=1;" vertex="1" parent="qoGqqS2xH7TkXtHpmUU5-1">
          <mxGeometry x="140" y="240" width="100" height="40" as="geometry" />
        </mxCell>
        <mxCell id="qoGqqS2xH7TkXtHpmUU5-10" style="edgeStyle=orthogonalEdgeStyle;rounded=0;orthogonalLoop=1;jettySize=auto;html=1;" edge="1" parent="qoGqqS2xH7TkXtHpmUU5-1" source="qoGqqS2xH7TkXtHpmUU5-11" target="qoGqqS2xH7TkXtHpmUU5-12">
          <mxGeometry relative="1" as="geometry" />
        </mxCell>
        <mxCell id="qoGqqS2xH7TkXtHpmUU5-11" value="55" style="rounded=0;whiteSpace=wrap;html=1;" vertex="1" parent="qoGqqS2xH7TkXtHpmUU5-1">
          <mxGeometry x="310" y="240" width="100" height="40" as="geometry" />
        </mxCell>
        <mxCell id="qoGqqS2xH7TkXtHpmUU5-12" value="100" style="rounded=0;whiteSpace=wrap;html=1;" vertex="1" parent="qoGqqS2xH7TkXtHpmUU5-1">
          <mxGeometry x="480" y="240" width="100" height="40" as="geometry" />
        </mxCell>
        <mxCell id="qoGqqS2xH7TkXtHpmUU5-13" value="" style="endArrow=classic;html=1;rounded=0;entryX=0;entryY=0.5;entryDx=0;entryDy=0;exitX=1;exitY=0.5;exitDx=0;exitDy=0;" edge="1" parent="qoGqqS2xH7TkXtHpmUU5-1" source="qoGqqS2xH7TkXtHpmUU5-12" target="qoGqqS2xH7TkXtHpmUU5-16">
          <mxGeometry width="50" height="50" relative="1" as="geometry">
            <mxPoint x="650" y="280" as="sourcePoint" />
            <mxPoint x="650" y="310" as="targetPoint" />
          </mxGeometry>
        </mxCell>
        <mxCell id="qoGqqS2xH7TkXtHpmUU5-14" value="34" style="rounded=0;whiteSpace=wrap;html=1;" vertex="1" parent="qoGqqS2xH7TkXtHpmUU5-1">
          <mxGeometry x="50" y="80" width="100" height="40" as="geometry" />
        </mxCell>
        <mxCell id="qoGqqS2xH7TkXtHpmUU5-15" value="" style="endArrow=classic;html=1;rounded=0;entryX=0.11;entryY=-0.025;entryDx=0;entryDy=0;entryPerimeter=0;" edge="1" parent="qoGqqS2xH7TkXtHpmUU5-1" target="qoGqqS2xH7TkXtHpmUU5-9">
          <mxGeometry width="50" height="50" relative="1" as="geometry">
            <mxPoint x="100" y="120" as="sourcePoint" />
            <mxPoint x="100" y="150" as="targetPoint" />
          </mxGeometry>
        </mxCell>
        <mxCell id="qoGqqS2xH7TkXtHpmUU5-16" value="1" style="rounded=0;whiteSpace=wrap;html=1;" vertex="1" parent="qoGqqS2xH7TkXtHpmUU5-1">
          <mxGeometry x="670" y="240" width="100" height="40" as="geometry" />
        </mxCell>
        <mxCell id="qoGqqS2xH7TkXtHpmUU5-17" value="" style="group" vertex="1" connectable="0" parent="qoGqqS2xH7TkXtHpmUU5-1">
          <mxGeometry x="690" y="310" width="60" height="20" as="geometry" />
        </mxCell>
        <mxCell id="qoGqqS2xH7TkXtHpmUU5-18" value="" style="endArrow=none;html=1;rounded=0;" edge="1" parent="qoGqqS2xH7TkXtHpmUU5-17">
          <mxGeometry width="50" height="50" relative="1" as="geometry">
            <mxPoint as="sourcePoint" />
            <mxPoint x="60" as="targetPoint" />
          </mxGeometry>
        </mxCell>
        <mxCell id="qoGqqS2xH7TkXtHpmUU5-19" value="" style="endArrow=none;html=1;rounded=0;" edge="1" parent="qoGqqS2xH7TkXtHpmUU5-17">
          <mxGeometry width="50" height="50" relative="1" as="geometry">
            <mxPoint x="10" y="10" as="sourcePoint" />
            <mxPoint x="50" y="10" as="targetPoint" />
          </mxGeometry>
        </mxCell>
        <mxCell id="qoGqqS2xH7TkXtHpmUU5-20" value="" style="endArrow=none;html=1;rounded=0;" edge="1" parent="qoGqqS2xH7TkXtHpmUU5-17">
          <mxGeometry width="50" height="50" relative="1" as="geometry">
            <mxPoint x="20" y="20" as="sourcePoint" />
            <mxPoint x="40" y="20" as="targetPoint" />
          </mxGeometry>
        </mxCell>
        <mxCell id="qoGqqS2xH7TkXtHpmUU5-21" value="" style="endArrow=classic;html=1;rounded=0;" edge="1" parent="qoGqqS2xH7TkXtHpmUU5-1">
          <mxGeometry width="50" height="50" relative="1" as="geometry">
            <mxPoint x="720" y="280" as="sourcePoint" />
            <mxPoint x="720" y="310" as="targetPoint" />
          </mxGeometry>
        </mxCell>
        <mxCell id="qoGqqS2xH7TkXtHpmUU5-22" value="324" style="rounded=0;whiteSpace=wrap;html=1;" vertex="1" parent="qoGqqS2xH7TkXtHpmUU5-1">
          <mxGeometry x="380" y="360" width="100" height="40" as="geometry" />
        </mxCell>
        <mxCell id="qoGqqS2xH7TkXtHpmUU5-23" value="" style="group" vertex="1" connectable="0" parent="qoGqqS2xH7TkXtHpmUU5-1">
          <mxGeometry x="400" y="435" width="60" height="20" as="geometry" />
        </mxCell>
        <mxCell id="qoGqqS2xH7TkXtHpmUU5-24" value="" style="endArrow=none;html=1;rounded=0;" edge="1" parent="qoGqqS2xH7TkXtHpmUU5-23">
          <mxGeometry width="50" height="50" relative="1" as="geometry">
            <mxPoint as="sourcePoint" />
            <mxPoint x="60" as="targetPoint" />
          </mxGeometry>
        </mxCell>
        <mxCell id="qoGqqS2xH7TkXtHpmUU5-25" value="" style="endArrow=none;html=1;rounded=0;" edge="1" parent="qoGqqS2xH7TkXtHpmUU5-23">
          <mxGeometry width="50" height="50" relative="1" as="geometry">
            <mxPoint x="10" y="10" as="sourcePoint" />
            <mxPoint x="50" y="10" as="targetPoint" />
          </mxGeometry>
        </mxCell>
        <mxCell id="qoGqqS2xH7TkXtHpmUU5-26" value="" style="endArrow=none;html=1;rounded=0;" edge="1" parent="qoGqqS2xH7TkXtHpmUU5-23">
          <mxGeometry width="50" height="50" relative="1" as="geometry">
            <mxPoint x="20" y="20" as="sourcePoint" />
            <mxPoint x="40" y="20" as="targetPoint" />
          </mxGeometry>
        </mxCell>
        <mxCell id="qoGqqS2xH7TkXtHpmUU5-27" value="" style="endArrow=classic;html=1;rounded=0;" edge="1" parent="qoGqqS2xH7TkXtHpmUU5-1">
          <mxGeometry width="50" height="50" relative="1" as="geometry">
            <mxPoint x="430" y="405" as="sourcePoint" />
            <mxPoint x="430" y="435" as="targetPoint" />
          </mxGeometry>
        </mxCell>
        <mxCell id="qRFdDIefKOLk3bhFfhuA-0" value="Aux" style="text;html=1;align=center;verticalAlign=middle;resizable=0;points=[];autosize=1;strokeColor=none;fillColor=none;" vertex="1" parent="qoGqqS2xH7TkXtHpmUU5-1">
          <mxGeometry x="70" y="328" width="40" height="30" as="geometry" />
        </mxCell>
        <mxCell id="qRFdDIefKOLk3bhFfhuA-1" value="" style="endArrow=classic;html=1;rounded=0;entryX=0.5;entryY=1;entryDx=0;entryDy=0;" edge="1" parent="qoGqqS2xH7TkXtHpmUU5-1" source="qRFdDIefKOLk3bhFfhuA-0" target="qoGqqS2xH7TkXtHpmUU5-9">
          <mxGeometry width="50" height="50" relative="1" as="geometry">
            <mxPoint x="400" y="380" as="sourcePoint" />
            <mxPoint x="450" y="330" as="targetPoint" />
          </mxGeometry>
        </mxCell>
      </root>
    </mxGraphModel>
  </diagram>
  <diagram name="10" id="dRfUuO3VzIXol2M2zKvM">
    <mxGraphModel dx="1134" dy="690" grid="1" gridSize="10" guides="1" tooltips="1" connect="1" arrows="1" fold="1" page="1" pageScale="1" pageWidth="850" pageHeight="1100" math="0" shadow="0">
      <root>
        <mxCell id="HHmh0GffUlbL6JqiUt0C-0" />
        <mxCell id="HHmh0GffUlbL6JqiUt0C-1" parent="HHmh0GffUlbL6JqiUt0C-0" />
        <mxCell id="HHmh0GffUlbL6JqiUt0C-2" value="" style="rounded=0;whiteSpace=wrap;html=1;" vertex="1" parent="HHmh0GffUlbL6JqiUt0C-1">
          <mxGeometry x="320" y="40" width="205" height="80" as="geometry" />
        </mxCell>
        <mxCell id="HHmh0GffUlbL6JqiUt0C-3" value="Início" style="rounded=0;whiteSpace=wrap;html=1;" vertex="1" parent="HHmh0GffUlbL6JqiUt0C-1">
          <mxGeometry x="320" y="80" width="100" height="40" as="geometry" />
        </mxCell>
        <mxCell id="HHmh0GffUlbL6JqiUt0C-4" value="Fim" style="rounded=0;whiteSpace=wrap;html=1;" vertex="1" parent="HHmh0GffUlbL6JqiUt0C-1">
          <mxGeometry x="420" y="80" width="105" height="40" as="geometry" />
        </mxCell>
        <mxCell id="HHmh0GffUlbL6JqiUt0C-5" value="Lista" style="text;html=1;align=center;verticalAlign=middle;whiteSpace=wrap;rounded=0;" vertex="1" parent="HHmh0GffUlbL6JqiUt0C-1">
          <mxGeometry x="390" y="40" width="60" height="30" as="geometry" />
        </mxCell>
        <mxCell id="HHmh0GffUlbL6JqiUt0C-6" value="" style="endArrow=classic;html=1;rounded=0;exitX=0;exitY=0.5;exitDx=0;exitDy=0;entryX=1;entryY=0.5;entryDx=0;entryDy=0;" edge="1" parent="HHmh0GffUlbL6JqiUt0C-1" source="HHmh0GffUlbL6JqiUt0C-3" target="HHmh0GffUlbL6JqiUt0C-14">
          <mxGeometry width="50" height="50" relative="1" as="geometry">
            <mxPoint x="400" y="260" as="sourcePoint" />
            <mxPoint x="370" y="160" as="targetPoint" />
          </mxGeometry>
        </mxCell>
        <mxCell id="HHmh0GffUlbL6JqiUt0C-7" value="" style="endArrow=classic;html=1;rounded=0;exitX=0.5;exitY=1;exitDx=0;exitDy=0;entryX=0.5;entryY=0;entryDx=0;entryDy=0;" edge="1" parent="HHmh0GffUlbL6JqiUt0C-1" target="HHmh0GffUlbL6JqiUt0C-16">
          <mxGeometry width="50" height="50" relative="1" as="geometry">
            <mxPoint x="472" y="120" as="sourcePoint" />
            <mxPoint x="472" y="160" as="targetPoint" />
          </mxGeometry>
        </mxCell>
        <mxCell id="HHmh0GffUlbL6JqiUt0C-8" style="edgeStyle=orthogonalEdgeStyle;rounded=0;orthogonalLoop=1;jettySize=auto;html=1;entryX=0;entryY=0.5;entryDx=0;entryDy=0;" edge="1" parent="HHmh0GffUlbL6JqiUt0C-1" source="HHmh0GffUlbL6JqiUt0C-9" target="HHmh0GffUlbL6JqiUt0C-11">
          <mxGeometry relative="1" as="geometry" />
        </mxCell>
        <mxCell id="HHmh0GffUlbL6JqiUt0C-9" value="12" style="rounded=0;whiteSpace=wrap;html=1;" vertex="1" parent="HHmh0GffUlbL6JqiUt0C-1">
          <mxGeometry x="140" y="240" width="100" height="40" as="geometry" />
        </mxCell>
        <mxCell id="HHmh0GffUlbL6JqiUt0C-10" style="edgeStyle=orthogonalEdgeStyle;rounded=0;orthogonalLoop=1;jettySize=auto;html=1;" edge="1" parent="HHmh0GffUlbL6JqiUt0C-1" source="HHmh0GffUlbL6JqiUt0C-11" target="HHmh0GffUlbL6JqiUt0C-12">
          <mxGeometry relative="1" as="geometry" />
        </mxCell>
        <mxCell id="HHmh0GffUlbL6JqiUt0C-11" value="55" style="rounded=0;whiteSpace=wrap;html=1;" vertex="1" parent="HHmh0GffUlbL6JqiUt0C-1">
          <mxGeometry x="310" y="240" width="100" height="40" as="geometry" />
        </mxCell>
        <mxCell id="HHmh0GffUlbL6JqiUt0C-12" value="100" style="rounded=0;whiteSpace=wrap;html=1;" vertex="1" parent="HHmh0GffUlbL6JqiUt0C-1">
          <mxGeometry x="480" y="240" width="100" height="40" as="geometry" />
        </mxCell>
        <mxCell id="HHmh0GffUlbL6JqiUt0C-13" value="" style="endArrow=classic;html=1;rounded=0;entryX=0;entryY=0.5;entryDx=0;entryDy=0;exitX=1;exitY=0.5;exitDx=0;exitDy=0;" edge="1" parent="HHmh0GffUlbL6JqiUt0C-1" source="HHmh0GffUlbL6JqiUt0C-12" target="HHmh0GffUlbL6JqiUt0C-16">
          <mxGeometry width="50" height="50" relative="1" as="geometry">
            <mxPoint x="650" y="280" as="sourcePoint" />
            <mxPoint x="650" y="310" as="targetPoint" />
          </mxGeometry>
        </mxCell>
        <mxCell id="HHmh0GffUlbL6JqiUt0C-14" value="34" style="rounded=0;whiteSpace=wrap;html=1;" vertex="1" parent="HHmh0GffUlbL6JqiUt0C-1">
          <mxGeometry x="50" y="80" width="100" height="40" as="geometry" />
        </mxCell>
        <mxCell id="HHmh0GffUlbL6JqiUt0C-15" value="" style="endArrow=classic;html=1;rounded=0;entryX=0.11;entryY=-0.025;entryDx=0;entryDy=0;entryPerimeter=0;" edge="1" parent="HHmh0GffUlbL6JqiUt0C-1" target="HHmh0GffUlbL6JqiUt0C-9">
          <mxGeometry width="50" height="50" relative="1" as="geometry">
            <mxPoint x="100" y="120" as="sourcePoint" />
            <mxPoint x="100" y="150" as="targetPoint" />
          </mxGeometry>
        </mxCell>
        <mxCell id="HHmh0GffUlbL6JqiUt0C-16" value="1" style="rounded=0;whiteSpace=wrap;html=1;" vertex="1" parent="HHmh0GffUlbL6JqiUt0C-1">
          <mxGeometry x="670" y="240" width="100" height="40" as="geometry" />
        </mxCell>
        <mxCell id="HHmh0GffUlbL6JqiUt0C-17" value="" style="group" vertex="1" connectable="0" parent="HHmh0GffUlbL6JqiUt0C-1">
          <mxGeometry x="690" y="310" width="60" height="20" as="geometry" />
        </mxCell>
        <mxCell id="HHmh0GffUlbL6JqiUt0C-18" value="" style="endArrow=none;html=1;rounded=0;" edge="1" parent="HHmh0GffUlbL6JqiUt0C-17">
          <mxGeometry width="50" height="50" relative="1" as="geometry">
            <mxPoint as="sourcePoint" />
            <mxPoint x="60" as="targetPoint" />
          </mxGeometry>
        </mxCell>
        <mxCell id="HHmh0GffUlbL6JqiUt0C-19" value="" style="endArrow=none;html=1;rounded=0;" edge="1" parent="HHmh0GffUlbL6JqiUt0C-17">
          <mxGeometry width="50" height="50" relative="1" as="geometry">
            <mxPoint x="10" y="10" as="sourcePoint" />
            <mxPoint x="50" y="10" as="targetPoint" />
          </mxGeometry>
        </mxCell>
        <mxCell id="HHmh0GffUlbL6JqiUt0C-20" value="" style="endArrow=none;html=1;rounded=0;" edge="1" parent="HHmh0GffUlbL6JqiUt0C-17">
          <mxGeometry width="50" height="50" relative="1" as="geometry">
            <mxPoint x="20" y="20" as="sourcePoint" />
            <mxPoint x="40" y="20" as="targetPoint" />
          </mxGeometry>
        </mxCell>
        <mxCell id="HHmh0GffUlbL6JqiUt0C-21" value="" style="endArrow=classic;html=1;rounded=0;" edge="1" parent="HHmh0GffUlbL6JqiUt0C-1">
          <mxGeometry width="50" height="50" relative="1" as="geometry">
            <mxPoint x="720" y="280" as="sourcePoint" />
            <mxPoint x="720" y="310" as="targetPoint" />
          </mxGeometry>
        </mxCell>
        <mxCell id="HHmh0GffUlbL6JqiUt0C-22" value="324" style="rounded=0;whiteSpace=wrap;html=1;" vertex="1" parent="HHmh0GffUlbL6JqiUt0C-1">
          <mxGeometry x="380" y="360" width="100" height="40" as="geometry" />
        </mxCell>
        <mxCell id="HHmh0GffUlbL6JqiUt0C-27" value="" style="endArrow=classic;html=1;rounded=0;entryX=0.5;entryY=1;entryDx=0;entryDy=0;exitX=0.5;exitY=0;exitDx=0;exitDy=0;" edge="1" parent="HHmh0GffUlbL6JqiUt0C-1" target="HHmh0GffUlbL6JqiUt0C-11" source="HHmh0GffUlbL6JqiUt0C-22">
          <mxGeometry width="50" height="50" relative="1" as="geometry">
            <mxPoint x="430" y="405" as="sourcePoint" />
            <mxPoint x="430" y="435" as="targetPoint" />
          </mxGeometry>
        </mxCell>
        <mxCell id="HHmh0GffUlbL6JqiUt0C-28" value="Aux" style="text;html=1;align=center;verticalAlign=middle;resizable=0;points=[];autosize=1;strokeColor=none;fillColor=none;" vertex="1" parent="HHmh0GffUlbL6JqiUt0C-1">
          <mxGeometry x="70" y="328" width="40" height="30" as="geometry" />
        </mxCell>
        <mxCell id="HHmh0GffUlbL6JqiUt0C-29" value="" style="endArrow=classic;html=1;rounded=0;entryX=0.5;entryY=1;entryDx=0;entryDy=0;" edge="1" parent="HHmh0GffUlbL6JqiUt0C-1" source="HHmh0GffUlbL6JqiUt0C-28" target="HHmh0GffUlbL6JqiUt0C-9">
          <mxGeometry width="50" height="50" relative="1" as="geometry">
            <mxPoint x="400" y="380" as="sourcePoint" />
            <mxPoint x="450" y="330" as="targetPoint" />
          </mxGeometry>
        </mxCell>
      </root>
    </mxGraphModel>
  </diagram>
  <diagram name="11" id="LWjK3IRdUJF-gQ_mrh9W">
    <mxGraphModel dx="1134" dy="690" grid="1" gridSize="10" guides="1" tooltips="1" connect="1" arrows="1" fold="1" page="1" pageScale="1" pageWidth="850" pageHeight="1100" math="0" shadow="0">
      <root>
        <mxCell id="nlSc_h5No85CUukXQLBT-0" />
        <mxCell id="nlSc_h5No85CUukXQLBT-1" parent="nlSc_h5No85CUukXQLBT-0" />
        <mxCell id="nlSc_h5No85CUukXQLBT-2" value="" style="rounded=0;whiteSpace=wrap;html=1;" vertex="1" parent="nlSc_h5No85CUukXQLBT-1">
          <mxGeometry x="320" y="40" width="205" height="80" as="geometry" />
        </mxCell>
        <mxCell id="nlSc_h5No85CUukXQLBT-3" value="Início" style="rounded=0;whiteSpace=wrap;html=1;" vertex="1" parent="nlSc_h5No85CUukXQLBT-1">
          <mxGeometry x="320" y="80" width="100" height="40" as="geometry" />
        </mxCell>
        <mxCell id="nlSc_h5No85CUukXQLBT-4" value="Fim" style="rounded=0;whiteSpace=wrap;html=1;" vertex="1" parent="nlSc_h5No85CUukXQLBT-1">
          <mxGeometry x="420" y="80" width="105" height="40" as="geometry" />
        </mxCell>
        <mxCell id="nlSc_h5No85CUukXQLBT-5" value="Lista" style="text;html=1;align=center;verticalAlign=middle;whiteSpace=wrap;rounded=0;" vertex="1" parent="nlSc_h5No85CUukXQLBT-1">
          <mxGeometry x="390" y="40" width="60" height="30" as="geometry" />
        </mxCell>
        <mxCell id="nlSc_h5No85CUukXQLBT-6" value="" style="endArrow=classic;html=1;rounded=0;exitX=0;exitY=0.5;exitDx=0;exitDy=0;entryX=1;entryY=0.5;entryDx=0;entryDy=0;" edge="1" parent="nlSc_h5No85CUukXQLBT-1" source="nlSc_h5No85CUukXQLBT-3" target="nlSc_h5No85CUukXQLBT-14">
          <mxGeometry width="50" height="50" relative="1" as="geometry">
            <mxPoint x="400" y="260" as="sourcePoint" />
            <mxPoint x="370" y="160" as="targetPoint" />
          </mxGeometry>
        </mxCell>
        <mxCell id="nlSc_h5No85CUukXQLBT-7" value="" style="endArrow=classic;html=1;rounded=0;exitX=0.5;exitY=1;exitDx=0;exitDy=0;entryX=0.5;entryY=0;entryDx=0;entryDy=0;" edge="1" parent="nlSc_h5No85CUukXQLBT-1" target="nlSc_h5No85CUukXQLBT-16">
          <mxGeometry width="50" height="50" relative="1" as="geometry">
            <mxPoint x="472" y="120" as="sourcePoint" />
            <mxPoint x="472" y="160" as="targetPoint" />
          </mxGeometry>
        </mxCell>
        <mxCell id="nlSc_h5No85CUukXQLBT-8" style="edgeStyle=orthogonalEdgeStyle;rounded=0;orthogonalLoop=1;jettySize=auto;html=1;entryX=0;entryY=0.55;entryDx=0;entryDy=0;entryPerimeter=0;" edge="1" parent="nlSc_h5No85CUukXQLBT-1" source="nlSc_h5No85CUukXQLBT-9" target="nlSc_h5No85CUukXQLBT-22">
          <mxGeometry relative="1" as="geometry">
            <mxPoint x="300" y="380" as="targetPoint" />
            <Array as="points">
              <mxPoint x="270" y="260" />
              <mxPoint x="270" y="380" />
            </Array>
          </mxGeometry>
        </mxCell>
        <mxCell id="nlSc_h5No85CUukXQLBT-9" value="12" style="rounded=0;whiteSpace=wrap;html=1;" vertex="1" parent="nlSc_h5No85CUukXQLBT-1">
          <mxGeometry x="140" y="240" width="100" height="40" as="geometry" />
        </mxCell>
        <mxCell id="nlSc_h5No85CUukXQLBT-10" style="edgeStyle=orthogonalEdgeStyle;rounded=0;orthogonalLoop=1;jettySize=auto;html=1;" edge="1" parent="nlSc_h5No85CUukXQLBT-1" source="nlSc_h5No85CUukXQLBT-11" target="nlSc_h5No85CUukXQLBT-12">
          <mxGeometry relative="1" as="geometry" />
        </mxCell>
        <mxCell id="nlSc_h5No85CUukXQLBT-11" value="55" style="rounded=0;whiteSpace=wrap;html=1;" vertex="1" parent="nlSc_h5No85CUukXQLBT-1">
          <mxGeometry x="310" y="240" width="100" height="40" as="geometry" />
        </mxCell>
        <mxCell id="nlSc_h5No85CUukXQLBT-12" value="100" style="rounded=0;whiteSpace=wrap;html=1;" vertex="1" parent="nlSc_h5No85CUukXQLBT-1">
          <mxGeometry x="480" y="240" width="100" height="40" as="geometry" />
        </mxCell>
        <mxCell id="nlSc_h5No85CUukXQLBT-13" value="" style="endArrow=classic;html=1;rounded=0;entryX=0;entryY=0.5;entryDx=0;entryDy=0;exitX=1;exitY=0.5;exitDx=0;exitDy=0;" edge="1" parent="nlSc_h5No85CUukXQLBT-1" source="nlSc_h5No85CUukXQLBT-12" target="nlSc_h5No85CUukXQLBT-16">
          <mxGeometry width="50" height="50" relative="1" as="geometry">
            <mxPoint x="650" y="280" as="sourcePoint" />
            <mxPoint x="650" y="310" as="targetPoint" />
          </mxGeometry>
        </mxCell>
        <mxCell id="nlSc_h5No85CUukXQLBT-14" value="34" style="rounded=0;whiteSpace=wrap;html=1;" vertex="1" parent="nlSc_h5No85CUukXQLBT-1">
          <mxGeometry x="50" y="80" width="100" height="40" as="geometry" />
        </mxCell>
        <mxCell id="nlSc_h5No85CUukXQLBT-15" value="" style="endArrow=classic;html=1;rounded=0;entryX=0.11;entryY=-0.025;entryDx=0;entryDy=0;entryPerimeter=0;" edge="1" parent="nlSc_h5No85CUukXQLBT-1" target="nlSc_h5No85CUukXQLBT-9">
          <mxGeometry width="50" height="50" relative="1" as="geometry">
            <mxPoint x="100" y="120" as="sourcePoint" />
            <mxPoint x="100" y="150" as="targetPoint" />
          </mxGeometry>
        </mxCell>
        <mxCell id="nlSc_h5No85CUukXQLBT-16" value="1" style="rounded=0;whiteSpace=wrap;html=1;" vertex="1" parent="nlSc_h5No85CUukXQLBT-1">
          <mxGeometry x="670" y="240" width="100" height="40" as="geometry" />
        </mxCell>
        <mxCell id="nlSc_h5No85CUukXQLBT-17" value="" style="group" vertex="1" connectable="0" parent="nlSc_h5No85CUukXQLBT-1">
          <mxGeometry x="690" y="310" width="60" height="20" as="geometry" />
        </mxCell>
        <mxCell id="nlSc_h5No85CUukXQLBT-18" value="" style="endArrow=none;html=1;rounded=0;" edge="1" parent="nlSc_h5No85CUukXQLBT-17">
          <mxGeometry width="50" height="50" relative="1" as="geometry">
            <mxPoint as="sourcePoint" />
            <mxPoint x="60" as="targetPoint" />
          </mxGeometry>
        </mxCell>
        <mxCell id="nlSc_h5No85CUukXQLBT-19" value="" style="endArrow=none;html=1;rounded=0;" edge="1" parent="nlSc_h5No85CUukXQLBT-17">
          <mxGeometry width="50" height="50" relative="1" as="geometry">
            <mxPoint x="10" y="10" as="sourcePoint" />
            <mxPoint x="50" y="10" as="targetPoint" />
          </mxGeometry>
        </mxCell>
        <mxCell id="nlSc_h5No85CUukXQLBT-20" value="" style="endArrow=none;html=1;rounded=0;" edge="1" parent="nlSc_h5No85CUukXQLBT-17">
          <mxGeometry width="50" height="50" relative="1" as="geometry">
            <mxPoint x="20" y="20" as="sourcePoint" />
            <mxPoint x="40" y="20" as="targetPoint" />
          </mxGeometry>
        </mxCell>
        <mxCell id="nlSc_h5No85CUukXQLBT-21" value="" style="endArrow=classic;html=1;rounded=0;" edge="1" parent="nlSc_h5No85CUukXQLBT-1">
          <mxGeometry width="50" height="50" relative="1" as="geometry">
            <mxPoint x="720" y="280" as="sourcePoint" />
            <mxPoint x="720" y="310" as="targetPoint" />
          </mxGeometry>
        </mxCell>
        <mxCell id="nlSc_h5No85CUukXQLBT-22" value="324" style="rounded=0;whiteSpace=wrap;html=1;" vertex="1" parent="nlSc_h5No85CUukXQLBT-1">
          <mxGeometry x="310" y="358" width="100" height="40" as="geometry" />
        </mxCell>
        <mxCell id="nlSc_h5No85CUukXQLBT-23" value="" style="endArrow=classic;html=1;rounded=0;entryX=0.5;entryY=1;entryDx=0;entryDy=0;exitX=0.5;exitY=0;exitDx=0;exitDy=0;" edge="1" parent="nlSc_h5No85CUukXQLBT-1" source="nlSc_h5No85CUukXQLBT-22" target="nlSc_h5No85CUukXQLBT-11">
          <mxGeometry width="50" height="50" relative="1" as="geometry">
            <mxPoint x="430" y="405" as="sourcePoint" />
            <mxPoint x="430" y="435" as="targetPoint" />
          </mxGeometry>
        </mxCell>
        <mxCell id="nlSc_h5No85CUukXQLBT-24" value="Aux" style="text;html=1;align=center;verticalAlign=middle;resizable=0;points=[];autosize=1;strokeColor=none;fillColor=none;" vertex="1" parent="nlSc_h5No85CUukXQLBT-1">
          <mxGeometry x="70" y="328" width="40" height="30" as="geometry" />
        </mxCell>
        <mxCell id="nlSc_h5No85CUukXQLBT-25" value="" style="endArrow=classic;html=1;rounded=0;entryX=0.5;entryY=1;entryDx=0;entryDy=0;" edge="1" parent="nlSc_h5No85CUukXQLBT-1" source="nlSc_h5No85CUukXQLBT-24" target="nlSc_h5No85CUukXQLBT-9">
          <mxGeometry width="50" height="50" relative="1" as="geometry">
            <mxPoint x="400" y="380" as="sourcePoint" />
            <mxPoint x="450" y="330" as="targetPoint" />
          </mxGeometry>
        </mxCell>
      </root>
    </mxGraphModel>
  </diagram>
</mxfile>
